<?xml version="1.0" encoding="UTF-8"?>
<svg xmlns="http://www.w3.org/2000/svg" xmlns:xlink="http://www.w3.org/1999/xlink" width="361pt" height="189pt" viewBox="0 0 361 189" version="1.1">
<g id="surface1">
<path style=" stroke:none;fill-rule:nonzero;fill:rgb(0%,0%,0%);fill-opacity:1;" d="M 89.5 11.347656 C 89.246094 11.640625 88.933594 11.914062 88.542969 12.167969 C 88.152344 12.382812 87.78125 12.539062 87.410156 12.65625 L 87.410156 13.574219 C 88.171875 13.339844 88.796875 12.988281 89.304688 12.460938 L 89.304688 19.375 L 90.222656 19.375 L 90.222656 11.347656 Z M 89.5 11.347656 "/>
<path style=" stroke:none;fill-rule:nonzero;fill:rgb(0%,0%,0%);fill-opacity:1;" d="M 151.628906 11.191406 C 150.808594 11.191406 150.144531 11.445312 149.65625 11.992188 C 149.148438 12.519531 148.894531 13.242188 148.894531 14.140625 L 149.8125 14.140625 C 149.832031 13.4375 150.007812 12.890625 150.320312 12.539062 C 150.613281 12.148438 151.042969 11.972656 151.589844 11.972656 C 152.097656 11.972656 152.527344 12.109375 152.820312 12.382812 C 153.113281 12.65625 153.25 13.027344 153.25 13.515625 C 153.25 14.023438 153.035156 14.511719 152.625 14.960938 C 152.410156 15.175781 152 15.507812 151.375 15.957031 C 150.515625 16.542969 149.949219 17.03125 149.636719 17.382812 C 149.089844 17.988281 148.835938 18.652344 148.835938 19.375 L 154.1875 19.375 L 154.1875 18.554688 L 149.96875 18.554688 C 150.105469 18.007812 150.691406 17.402344 151.726562 16.699219 C 152.546875 16.152344 153.113281 15.703125 153.386719 15.410156 C 153.894531 14.84375 154.167969 14.21875 154.167969 13.515625 C 154.167969 12.832031 153.933594 12.246094 153.445312 11.835938 C 152.976562 11.40625 152.371094 11.191406 151.628906 11.191406 Z M 151.628906 11.191406 "/>
<path style=" stroke:none;fill-rule:nonzero;fill:rgb(0%,0%,0%);fill-opacity:1;" d="M 216.167969 11.191406 C 215.40625 11.191406 214.78125 11.40625 214.3125 11.835938 C 213.804688 12.285156 213.511719 12.890625 213.453125 13.652344 L 214.371094 13.652344 C 214.429688 13.125 214.605469 12.695312 214.917969 12.402344 C 215.210938 12.109375 215.640625 11.992188 216.167969 11.992188 C 216.695312 11.992188 217.105469 12.109375 217.398438 12.382812 C 217.671875 12.617188 217.828125 12.96875 217.828125 13.417969 C 217.828125 13.867188 217.671875 14.21875 217.398438 14.472656 C 217.105469 14.707031 216.695312 14.824219 216.167969 14.824219 L 215.542969 14.824219 L 215.542969 15.546875 L 216.207031 15.546875 C 216.753906 15.546875 217.183594 15.664062 217.496094 15.9375 C 217.828125 16.210938 217.984375 16.582031 217.984375 17.070312 C 217.984375 17.539062 217.808594 17.929688 217.496094 18.242188 C 217.144531 18.574219 216.675781 18.75 216.109375 18.75 C 215.601562 18.75 215.191406 18.59375 214.839844 18.320312 C 214.449219 18.007812 214.234375 17.519531 214.214844 16.894531 L 213.277344 16.894531 C 213.355469 17.792969 213.667969 18.476562 214.234375 18.945312 C 214.722656 19.335938 215.347656 19.53125 216.109375 19.53125 C 216.949219 19.53125 217.613281 19.296875 218.140625 18.828125 C 218.648438 18.359375 218.902344 17.773438 218.902344 17.03125 C 218.902344 16.5625 218.765625 16.171875 218.492188 15.859375 C 218.238281 15.546875 217.886719 15.3125 217.417969 15.175781 C 218.296875 14.882812 218.726562 14.257812 218.726562 13.359375 C 218.726562 12.695312 218.492188 12.167969 218.023438 11.777344 C 217.554688 11.367188 216.929688 11.191406 216.167969 11.191406 Z M 216.167969 11.191406 "/>
<path style=" stroke:none;fill-rule:nonzero;fill:rgb(0%,0%,0%);fill-opacity:1;" d="M 18.421875 11.816406 C 17.582031 11.816406 16.898438 11.992188 16.371094 12.34375 C 15.765625 12.734375 15.472656 13.28125 15.472656 13.984375 C 15.472656 14.648438 15.785156 15.175781 16.410156 15.527344 C 16.664062 15.664062 17.289062 15.898438 18.246094 16.191406 C 19.144531 16.445312 19.730469 16.640625 19.945312 16.777344 C 20.472656 17.050781 20.746094 17.441406 20.746094 17.949219 C 20.746094 18.378906 20.550781 18.710938 20.140625 18.964844 C 19.730469 19.21875 19.183594 19.335938 18.539062 19.335938 C 17.816406 19.335938 17.289062 19.179688 16.917969 18.886719 C 16.507812 18.554688 16.253906 18.046875 16.175781 17.34375 L 15.257812 17.34375 C 15.335938 18.339844 15.6875 19.0625 16.3125 19.550781 C 16.859375 19.960938 17.601562 20.15625 18.539062 20.15625 C 19.496094 20.15625 20.257812 19.960938 20.804688 19.570312 C 21.371094 19.160156 21.664062 18.59375 21.664062 17.890625 C 21.664062 17.167969 21.3125 16.601562 20.648438 16.191406 C 20.316406 15.996094 19.613281 15.742188 18.558594 15.429688 C 17.777344 15.195312 17.289062 15.019531 17.09375 14.921875 C 16.625 14.667969 16.410156 14.335938 16.410156 13.945312 C 16.410156 13.476562 16.585938 13.144531 16.976562 12.910156 C 17.308594 12.714844 17.777344 12.617188 18.363281 12.617188 C 19.027344 12.617188 19.535156 12.753906 19.886719 13.046875 C 20.238281 13.320312 20.472656 13.75 20.570312 14.335938 L 21.46875 14.335938 C 21.390625 13.496094 21.097656 12.851562 20.550781 12.421875 C 20.042969 12.011719 19.320312 11.816406 18.421875 11.816406 Z M 18.421875 11.816406 "/>
<path style=" stroke:none;fill-rule:nonzero;fill:rgb(0%,0%,0%);fill-opacity:1;" d="M 24.261719 12.304688 L 23.382812 12.675781 L 23.382812 14.179688 L 22.210938 14.179688 L 22.210938 14.941406 L 23.382812 14.941406 L 23.382812 18.632812 C 23.382812 19.082031 23.460938 19.394531 23.65625 19.628906 C 23.851562 19.882812 24.203125 20 24.691406 20 L 25.550781 20 L 25.550781 19.238281 L 24.808594 19.238281 C 24.613281 19.238281 24.476562 19.199219 24.398438 19.101562 C 24.300781 19.003906 24.261719 18.847656 24.261719 18.632812 L 24.261719 14.941406 L 25.707031 14.941406 L 25.707031 14.179688 L 24.261719 14.179688 Z M 24.261719 12.304688 "/>
<path style=" stroke:none;fill-rule:nonzero;fill:rgb(0%,0%,0%);fill-opacity:1;" d="M 29.09375 14.023438 C 28.253906 14.023438 27.589844 14.335938 27.101562 14.941406 C 26.613281 15.507812 26.359375 16.230469 26.359375 17.089844 C 26.359375 18.027344 26.613281 18.769531 27.140625 19.335938 C 27.628906 19.882812 28.3125 20.15625 29.132812 20.15625 C 29.894531 20.15625 30.5 19.941406 30.988281 19.511719 C 31.378906 19.140625 31.652344 18.691406 31.769531 18.125 L 30.871094 18.125 C 30.734375 18.535156 30.539062 18.847656 30.285156 19.042969 C 29.992188 19.277344 29.601562 19.394531 29.132812 19.394531 C 28.585938 19.394531 28.136719 19.21875 27.824219 18.867188 C 27.511719 18.496094 27.355469 17.988281 27.296875 17.34375 L 31.886719 17.34375 C 31.867188 16.328125 31.652344 15.527344 31.222656 14.980469 C 30.734375 14.335938 30.03125 14.023438 29.09375 14.023438 Z M 29.132812 14.785156 C 30.226562 14.785156 30.851562 15.390625 30.949219 16.640625 L 27.316406 16.640625 C 27.375 16.074219 27.550781 15.625 27.882812 15.292969 C 28.195312 14.941406 28.605469 14.785156 29.132812 14.785156 Z M 29.132812 14.785156 "/>
<path style=" stroke:none;fill-rule:nonzero;fill:rgb(0%,0%,0%);fill-opacity:1;" d="M 35.730469 14.023438 C 34.851562 14.023438 34.207031 14.394531 33.796875 15.136719 L 33.796875 14.179688 L 32.957031 14.179688 L 32.957031 22.226562 L 33.855469 22.226562 L 33.855469 18.945312 C 34.304688 19.746094 34.949219 20.15625 35.769531 20.15625 C 36.609375 20.15625 37.253906 19.84375 37.722656 19.238281 C 38.152344 18.671875 38.367188 17.96875 38.367188 17.109375 C 38.367188 16.230469 38.152344 15.527344 37.703125 14.960938 C 37.234375 14.335938 36.570312 14.023438 35.730469 14.023438 Z M 35.613281 14.765625 C 36.238281 14.765625 36.707031 15 37.039062 15.46875 C 37.3125 15.878906 37.449219 16.425781 37.449219 17.109375 C 37.449219 17.8125 37.3125 18.359375 37.019531 18.769531 C 36.6875 19.199219 36.21875 19.414062 35.574219 19.414062 C 35.046875 19.414062 34.636719 19.199219 34.304688 18.789062 C 33.972656 18.378906 33.816406 17.832031 33.816406 17.167969 L 33.816406 17.050781 C 33.816406 16.40625 33.972656 15.859375 34.265625 15.449219 C 34.578125 15 35.027344 14.765625 35.613281 14.765625 Z M 35.613281 14.765625 "/>
<path style=" stroke:none;fill-rule:nonzero;fill:rgb(0%,0%,0%);fill-opacity:1;" d="M 13.285156 39.941406 C 12.074219 39.941406 11.136719 40.332031 10.433594 41.152344 C 9.769531 41.914062 9.4375 42.910156 9.4375 44.121094 C 9.4375 45.332031 9.769531 46.308594 10.433594 47.070312 C 11.136719 47.871094 12.074219 48.28125 13.285156 48.28125 C 14.476562 48.28125 15.433594 47.871094 16.136719 47.070312 C 16.78125 46.308594 17.132812 45.332031 17.132812 44.121094 C 17.132812 42.890625 16.78125 41.894531 16.136719 41.132812 C 15.433594 40.332031 14.476562 39.941406 13.285156 39.941406 Z M 13.285156 40.761719 C 14.203125 40.761719 14.925781 41.054688 15.453125 41.679688 C 15.941406 42.285156 16.195312 43.105469 16.195312 44.121094 C 16.195312 45.136719 15.941406 45.9375 15.453125 46.542969 C 14.925781 47.148438 14.203125 47.460938 13.285156 47.460938 C 12.347656 47.460938 11.625 47.148438 11.097656 46.523438 C 10.609375 45.917969 10.355469 45.117188 10.355469 44.121094 C 10.355469 43.125 10.609375 42.324219 11.097656 41.71875 C 11.644531 41.074219 12.367188 40.761719 13.285156 40.761719 Z M 13.285156 40.761719 "/>
<path style=" stroke:none;fill-rule:nonzero;fill:rgb(0%,0%,0%);fill-opacity:1;" d="M 18.300781 42.304688 L 18.300781 45.917969 C 18.300781 47.480469 18.984375 48.28125 20.410156 48.28125 C 21.191406 48.28125 21.835938 47.929688 22.304688 47.226562 L 22.304688 48.125 L 23.203125 48.125 L 23.203125 42.304688 L 22.304688 42.304688 L 22.304688 45.859375 C 22.226562 46.347656 22.050781 46.757812 21.71875 47.070312 C 21.425781 47.363281 21.074219 47.519531 20.683594 47.519531 C 20.15625 47.519531 19.785156 47.363281 19.550781 47.109375 C 19.316406 46.835938 19.199219 46.40625 19.199219 45.859375 L 19.199219 42.304688 Z M 18.300781 42.304688 "/>
<path style=" stroke:none;fill-rule:nonzero;fill:rgb(0%,0%,0%);fill-opacity:1;" d="M 26.144531 40.429688 L 25.265625 40.800781 L 25.265625 42.304688 L 24.09375 42.304688 L 24.09375 43.066406 L 25.265625 43.066406 L 25.265625 46.757812 C 25.265625 47.207031 25.34375 47.519531 25.539062 47.753906 C 25.734375 48.007812 26.085938 48.125 26.574219 48.125 L 27.433594 48.125 L 27.433594 47.363281 L 26.691406 47.363281 C 26.496094 47.363281 26.359375 47.324219 26.28125 47.226562 C 26.183594 47.128906 26.144531 46.972656 26.144531 46.757812 L 26.144531 43.066406 L 27.589844 43.066406 L 27.589844 42.304688 L 26.144531 42.304688 Z M 26.144531 40.429688 "/>
<path style=" stroke:none;fill-rule:nonzero;fill:rgb(0%,0%,0%);fill-opacity:1;" d="M 31.371094 42.148438 C 30.492188 42.148438 29.847656 42.519531 29.4375 43.261719 L 29.4375 42.304688 L 28.597656 42.304688 L 28.597656 50.351562 L 29.496094 50.351562 L 29.496094 47.070312 C 29.945312 47.871094 30.589844 48.28125 31.410156 48.28125 C 32.25 48.28125 32.894531 47.96875 33.363281 47.363281 C 33.792969 46.796875 34.007812 46.09375 34.007812 45.234375 C 34.007812 44.355469 33.792969 43.652344 33.34375 43.085938 C 32.875 42.460938 32.210938 42.148438 31.371094 42.148438 Z M 31.253906 42.890625 C 31.878906 42.890625 32.347656 43.125 32.679688 43.59375 C 32.953125 44.003906 33.089844 44.550781 33.089844 45.234375 C 33.089844 45.9375 32.953125 46.484375 32.660156 46.894531 C 32.328125 47.324219 31.859375 47.539062 31.214844 47.539062 C 30.6875 47.539062 30.277344 47.324219 29.945312 46.914062 C 29.613281 46.503906 29.457031 45.957031 29.457031 45.292969 L 29.457031 45.175781 C 29.457031 44.53125 29.613281 43.984375 29.90625 43.574219 C 30.21875 43.125 30.667969 42.890625 31.253906 42.890625 Z M 31.253906 42.890625 "/>
<path style=" stroke:none;fill-rule:nonzero;fill:rgb(0%,0%,0%);fill-opacity:1;" d="M 35.1875 42.304688 L 35.1875 45.917969 C 35.1875 47.480469 35.871094 48.28125 37.296875 48.28125 C 38.078125 48.28125 38.722656 47.929688 39.191406 47.226562 L 39.191406 48.125 L 40.089844 48.125 L 40.089844 42.304688 L 39.191406 42.304688 L 39.191406 45.859375 C 39.113281 46.347656 38.9375 46.757812 38.605469 47.070312 C 38.3125 47.363281 37.960938 47.519531 37.570312 47.519531 C 37.042969 47.519531 36.671875 47.363281 36.4375 47.109375 C 36.203125 46.835938 36.085938 46.40625 36.085938 45.859375 L 36.085938 42.304688 Z M 35.1875 42.304688 "/>
<path style=" stroke:none;fill-rule:nonzero;fill:rgb(0%,0%,0%);fill-opacity:1;" d="M 43.03125 40.429688 L 42.152344 40.800781 L 42.152344 42.304688 L 40.980469 42.304688 L 40.980469 43.066406 L 42.152344 43.066406 L 42.152344 46.757812 C 42.152344 47.207031 42.230469 47.519531 42.425781 47.753906 C 42.621094 48.007812 42.972656 48.125 43.460938 48.125 L 44.320312 48.125 L 44.320312 47.363281 L 43.578125 47.363281 C 43.382812 47.363281 43.246094 47.324219 43.167969 47.226562 C 43.070312 47.128906 43.03125 46.972656 43.03125 46.757812 L 43.03125 43.066406 L 44.476562 43.066406 L 44.476562 42.304688 L 43.03125 42.304688 Z M 43.03125 40.429688 "/>
<path style=" stroke:none;fill-rule:nonzero;fill:rgb(0%,0%,0%);fill-opacity:1;" d="M 14.832031 169.074219 L 14.832031 177.101562 L 15.75 177.101562 L 15.75 169.074219 Z M 14.832031 169.074219 "/>
<path style=" stroke:none;fill-rule:nonzero;fill:rgb(0%,0%,0%);fill-opacity:1;" d="M 20.039062 171.125 C 19.667969 171.125 19.316406 171.222656 19.003906 171.398438 C 18.671875 171.574219 18.417969 171.808594 18.222656 172.140625 L 18.222656 171.28125 L 17.324219 171.28125 L 17.324219 177.101562 L 18.222656 177.101562 L 18.222656 173.585938 C 18.261719 173.058594 18.417969 172.648438 18.730469 172.335938 C 19.023438 172.042969 19.375 171.886719 19.785156 171.886719 C 20.800781 171.886719 21.308594 172.453125 21.308594 173.585938 L 21.308594 177.101562 L 22.207031 177.101562 L 22.207031 173.527344 C 22.207031 171.925781 21.484375 171.125 20.039062 171.125 Z M 20.039062 171.125 "/>
<path style=" stroke:none;fill-rule:nonzero;fill:rgb(0%,0%,0%);fill-opacity:1;" d="M 26.386719 171.125 C 25.507812 171.125 24.863281 171.496094 24.453125 172.238281 L 24.453125 171.28125 L 23.613281 171.28125 L 23.613281 179.328125 L 24.511719 179.328125 L 24.511719 176.046875 C 24.960938 176.847656 25.605469 177.257812 26.425781 177.257812 C 27.265625 177.257812 27.910156 176.945312 28.378906 176.339844 C 28.808594 175.773438 29.023438 175.070312 29.023438 174.210938 C 29.023438 173.332031 28.808594 172.628906 28.359375 172.0625 C 27.890625 171.4375 27.226562 171.125 26.386719 171.125 Z M 26.269531 171.867188 C 26.894531 171.867188 27.363281 172.101562 27.695312 172.570312 C 27.96875 172.980469 28.105469 173.527344 28.105469 174.210938 C 28.105469 174.914062 27.96875 175.460938 27.675781 175.871094 C 27.34375 176.300781 26.875 176.515625 26.230469 176.515625 C 25.703125 176.515625 25.292969 176.300781 24.960938 175.890625 C 24.628906 175.480469 24.472656 174.933594 24.472656 174.269531 L 24.472656 174.152344 C 24.472656 173.507812 24.628906 172.960938 24.921875 172.550781 C 25.234375 172.101562 25.683594 171.867188 26.269531 171.867188 Z M 26.269531 171.867188 "/>
<path style=" stroke:none;fill-rule:nonzero;fill:rgb(0%,0%,0%);fill-opacity:1;" d="M 30.203125 171.28125 L 30.203125 174.894531 C 30.203125 176.457031 30.886719 177.257812 32.3125 177.257812 C 33.09375 177.257812 33.738281 176.90625 34.207031 176.203125 L 34.207031 177.101562 L 35.105469 177.101562 L 35.105469 171.28125 L 34.207031 171.28125 L 34.207031 174.835938 C 34.128906 175.324219 33.953125 175.734375 33.621094 176.046875 C 33.328125 176.339844 32.976562 176.496094 32.585938 176.496094 C 32.058594 176.496094 31.6875 176.339844 31.453125 176.085938 C 31.21875 175.8125 31.101562 175.382812 31.101562 174.835938 L 31.101562 171.28125 Z M 30.203125 171.28125 "/>
<path style=" stroke:none;fill-rule:nonzero;fill:rgb(0%,0%,0%);fill-opacity:1;" d="M 38.046875 169.40625 L 37.167969 169.777344 L 37.167969 171.28125 L 35.996094 171.28125 L 35.996094 172.042969 L 37.167969 172.042969 L 37.167969 175.734375 C 37.167969 176.183594 37.246094 176.496094 37.441406 176.730469 C 37.636719 176.984375 37.988281 177.101562 38.476562 177.101562 L 39.335938 177.101562 L 39.335938 176.339844 L 38.59375 176.339844 C 38.398438 176.339844 38.261719 176.300781 38.183594 176.203125 C 38.085938 176.105469 38.046875 175.949219 38.046875 175.734375 L 38.046875 172.042969 L 39.492188 172.042969 L 39.492188 171.28125 L 38.046875 171.28125 Z M 38.046875 169.40625 "/>
<path style=" stroke:none;fill-rule:nonzero;fill:rgb(0%,0%,0%);fill-opacity:1;" d="M 80.8125 168.449219 L 80.8125 169.25 L 83.644531 169.25 L 83.644531 176.476562 L 84.5625 176.476562 L 84.5625 169.25 L 87.394531 169.25 L 87.394531 168.449219 Z M 80.8125 168.449219 "/>
<path style=" stroke:none;fill-rule:nonzero;fill:rgb(0%,0%,0%);fill-opacity:1;" d="M 88.285156 168.292969 L 88.285156 176.476562 L 89.183594 176.476562 L 89.183594 173.15625 C 89.183594 172.609375 89.320312 172.160156 89.632812 171.789062 C 89.925781 171.4375 90.296875 171.261719 90.746094 171.261719 C 91.234375 171.261719 91.605469 171.398438 91.859375 171.691406 C 92.113281 171.984375 92.25 172.394531 92.25 172.941406 L 92.25 176.476562 L 93.148438 176.476562 L 93.148438 172.804688 C 93.148438 172.0625 92.972656 171.496094 92.601562 171.105469 C 92.25 170.695312 91.722656 170.5 91.039062 170.5 C 90.648438 170.5 90.296875 170.597656 89.984375 170.773438 C 89.652344 170.96875 89.378906 171.242188 89.183594 171.613281 L 89.183594 168.292969 Z M 88.285156 168.292969 "/>
<path style=" stroke:none;fill-rule:nonzero;fill:rgb(0%,0%,0%);fill-opacity:1;" d="M 96.921875 170.5 C 96.082031 170.5 95.417969 170.8125 94.929688 171.417969 C 94.441406 171.984375 94.1875 172.707031 94.1875 173.566406 C 94.1875 174.503906 94.441406 175.246094 94.96875 175.8125 C 95.457031 176.359375 96.140625 176.632812 96.960938 176.632812 C 97.722656 176.632812 98.328125 176.417969 98.816406 175.988281 C 99.207031 175.617188 99.480469 175.167969 99.597656 174.601562 L 98.699219 174.601562 C 98.5625 175.011719 98.367188 175.324219 98.113281 175.519531 C 97.820312 175.753906 97.429688 175.871094 96.960938 175.871094 C 96.414062 175.871094 95.964844 175.695312 95.652344 175.34375 C 95.339844 174.972656 95.183594 174.464844 95.125 173.820312 L 99.714844 173.820312 C 99.695312 172.804688 99.480469 172.003906 99.050781 171.457031 C 98.5625 170.8125 97.859375 170.5 96.921875 170.5 Z M 96.960938 171.261719 C 98.054688 171.261719 98.679688 171.867188 98.777344 173.117188 L 95.144531 173.117188 C 95.203125 172.550781 95.378906 172.101562 95.710938 171.769531 C 96.023438 171.417969 96.433594 171.261719 96.960938 171.261719 Z M 96.960938 171.261719 "/>
<path style=" stroke:none;fill-rule:nonzero;fill:rgb(0%,0%,0%);fill-opacity:1;" d="M 140.960938 168.449219 L 140.960938 169.25 L 143.792969 169.25 L 143.792969 176.476562 L 144.710938 176.476562 L 144.710938 169.25 L 147.542969 169.25 L 147.542969 168.449219 Z M 140.960938 168.449219 "/>
<path style=" stroke:none;fill-rule:nonzero;fill:rgb(0%,0%,0%);fill-opacity:1;" d="M 149.171875 168.46875 C 148.976562 168.46875 148.820312 168.527344 148.683594 168.664062 C 148.546875 168.761719 148.488281 168.9375 148.488281 169.132812 C 148.488281 169.328125 148.546875 169.484375 148.683594 169.621094 C 148.820312 169.738281 148.976562 169.796875 149.171875 169.796875 C 149.367188 169.796875 149.523438 169.738281 149.640625 169.621094 C 149.777344 169.484375 149.855469 169.328125 149.855469 169.132812 C 149.855469 168.9375 149.777344 168.761719 149.640625 168.664062 C 149.523438 168.527344 149.367188 168.46875 149.171875 168.46875 Z M 148.722656 170.65625 L 148.722656 176.476562 L 149.621094 176.476562 L 149.621094 170.65625 Z M 148.722656 170.65625 "/>
<path style=" stroke:none;fill-rule:nonzero;fill:rgb(0%,0%,0%);fill-opacity:1;" d="M 153.851562 170.5 C 153.1875 170.5 152.640625 170.8125 152.210938 171.4375 L 152.210938 170.65625 L 151.3125 170.65625 L 151.3125 176.476562 L 152.210938 176.476562 L 152.210938 172.941406 C 152.210938 172.472656 152.347656 172.082031 152.621094 171.769531 C 152.875 171.417969 153.226562 171.261719 153.636719 171.261719 C 154.515625 171.261719 154.964844 171.769531 154.964844 172.804688 L 154.964844 176.476562 L 155.882812 176.476562 L 155.882812 172.824219 C 155.882812 172.355469 156 171.984375 156.273438 171.691406 C 156.507812 171.398438 156.839844 171.261719 157.230469 171.261719 C 157.71875 171.261719 158.070312 171.398438 158.304688 171.652344 C 158.519531 171.90625 158.636719 172.296875 158.636719 172.804688 L 158.636719 176.476562 L 159.535156 176.476562 L 159.535156 172.667969 C 159.535156 172.003906 159.339844 171.476562 158.988281 171.085938 C 158.597656 170.695312 158.109375 170.5 157.503906 170.5 C 157.09375 170.5 156.761719 170.597656 156.488281 170.773438 C 156.175781 170.949219 155.902344 171.222656 155.667969 171.613281 C 155.335938 170.871094 154.730469 170.5 153.851562 170.5 Z M 153.851562 170.5 "/>
<path style=" stroke:none;fill-rule:nonzero;fill:rgb(0%,0%,0%);fill-opacity:1;" d="M 163.3125 170.5 C 162.472656 170.5 161.808594 170.8125 161.320312 171.417969 C 160.832031 171.984375 160.578125 172.707031 160.578125 173.566406 C 160.578125 174.503906 160.832031 175.246094 161.359375 175.8125 C 161.847656 176.359375 162.53125 176.632812 163.351562 176.632812 C 164.113281 176.632812 164.71875 176.417969 165.207031 175.988281 C 165.597656 175.617188 165.871094 175.167969 165.988281 174.601562 L 165.089844 174.601562 C 164.953125 175.011719 164.757812 175.324219 164.503906 175.519531 C 164.210938 175.753906 163.820312 175.871094 163.351562 175.871094 C 162.804688 175.871094 162.355469 175.695312 162.042969 175.34375 C 161.730469 174.972656 161.574219 174.464844 161.515625 173.820312 L 166.105469 173.820312 C 166.085938 172.804688 165.871094 172.003906 165.441406 171.457031 C 164.953125 170.8125 164.25 170.5 163.3125 170.5 Z M 163.351562 171.261719 C 164.445312 171.261719 165.070312 171.867188 165.167969 173.117188 L 161.535156 173.117188 C 161.59375 172.550781 161.769531 172.101562 162.101562 171.769531 C 162.414062 171.417969 162.824219 171.261719 163.351562 171.261719 Z M 163.351562 171.261719 "/>
<path style=" stroke:none;fill-rule:nonzero;fill:rgb(0%,0%,0%);fill-opacity:1;" d="M 196.042969 168.449219 L 196.042969 176.476562 L 196.980469 176.476562 L 196.980469 170.089844 L 197 170.089844 L 199.792969 176.476562 L 200.613281 176.476562 L 203.40625 170.089844 L 203.425781 170.089844 L 203.425781 176.476562 L 204.363281 176.476562 L 204.363281 168.449219 L 203.210938 168.449219 L 200.222656 175.304688 L 200.183594 175.304688 L 197.195312 168.449219 Z M 196.042969 168.449219 "/>
<path style=" stroke:none;fill-rule:nonzero;fill:rgb(0%,0%,0%);fill-opacity:1;" d="M 208.386719 170.5 C 207.703125 170.5 207.136719 170.636719 206.707031 170.910156 C 206.238281 171.203125 205.945312 171.652344 205.808594 172.277344 L 206.707031 172.335938 C 206.804688 171.964844 206.980469 171.691406 207.292969 171.496094 C 207.566406 171.320312 207.917969 171.242188 208.328125 171.242188 C 209.34375 171.242188 209.851562 171.730469 209.851562 172.707031 L 209.851562 173.019531 L 208.464844 173.039062 C 207.585938 173.039062 206.902344 173.214844 206.433594 173.527344 C 205.886719 173.859375 205.632812 174.367188 205.632812 175.03125 C 205.632812 175.5 205.808594 175.890625 206.179688 176.203125 C 206.53125 176.496094 206.980469 176.632812 207.566406 176.632812 C 208.113281 176.632812 208.601562 176.515625 209.03125 176.28125 C 209.382812 176.066406 209.695312 175.8125 209.910156 175.5 L 209.910156 176.476562 L 210.75 176.476562 L 210.75 172.746094 C 210.75 172.0625 210.574219 171.535156 210.242188 171.164062 C 209.832031 170.714844 209.226562 170.5 208.386719 170.5 Z M 209.851562 173.683594 L 209.851562 174.171875 C 209.851562 174.640625 209.636719 175.03125 209.226562 175.382812 C 208.796875 175.753906 208.308594 175.929688 207.761719 175.929688 C 207.410156 175.929688 207.117188 175.832031 206.882812 175.675781 C 206.667969 175.480469 206.550781 175.265625 206.550781 175.011719 C 206.550781 174.152344 207.214844 173.722656 208.523438 173.703125 Z M 209.851562 173.683594 "/>
<path style=" stroke:none;fill-rule:nonzero;fill:rgb(0%,0%,0%);fill-opacity:1;" d="M 214.65625 170.5 C 213.796875 170.5 213.113281 170.8125 212.605469 171.417969 C 212.15625 171.984375 211.921875 172.707031 211.921875 173.605469 C 211.921875 174.484375 212.15625 175.207031 212.605469 175.753906 C 213.09375 176.339844 213.777344 176.632812 214.65625 176.632812 C 215.359375 176.632812 215.945312 176.4375 216.375 176.066406 C 216.824219 175.695312 217.117188 175.109375 217.253906 174.367188 L 216.355469 174.367188 C 216.21875 175.382812 215.632812 175.871094 214.65625 175.871094 C 214.070312 175.871094 213.621094 175.675781 213.308594 175.265625 C 212.996094 174.855469 212.839844 174.289062 212.839844 173.585938 C 212.839844 172.882812 212.996094 172.316406 213.328125 171.90625 C 213.640625 171.476562 214.089844 171.261719 214.65625 171.261719 C 215.125 171.261719 215.496094 171.359375 215.789062 171.574219 C 216.0625 171.808594 216.238281 172.140625 216.316406 172.589844 L 217.214844 172.589844 C 217.117188 171.886719 216.84375 171.359375 216.394531 171.007812 C 215.945312 170.675781 215.378906 170.5 214.65625 170.5 Z M 214.65625 170.5 "/>
<path style=" stroke:none;fill-rule:nonzero;fill:rgb(0%,0%,0%);fill-opacity:1;" d="M 218.308594 168.292969 L 218.308594 176.476562 L 219.207031 176.476562 L 219.207031 173.15625 C 219.207031 172.609375 219.34375 172.160156 219.65625 171.789062 C 219.949219 171.4375 220.320312 171.261719 220.769531 171.261719 C 221.257812 171.261719 221.628906 171.398438 221.882812 171.691406 C 222.136719 171.984375 222.273438 172.394531 222.273438 172.941406 L 222.273438 176.476562 L 223.171875 176.476562 L 223.171875 172.804688 C 223.171875 172.0625 222.996094 171.496094 222.625 171.105469 C 222.273438 170.695312 221.746094 170.5 221.0625 170.5 C 220.671875 170.5 220.320312 170.597656 220.007812 170.773438 C 219.675781 170.96875 219.402344 171.242188 219.207031 171.613281 L 219.207031 168.292969 Z M 218.308594 168.292969 "/>
<path style=" stroke:none;fill-rule:nonzero;fill:rgb(0%,0%,0%);fill-opacity:1;" d="M 225.308594 168.46875 C 225.113281 168.46875 224.957031 168.527344 224.820312 168.664062 C 224.683594 168.761719 224.625 168.9375 224.625 169.132812 C 224.625 169.328125 224.683594 169.484375 224.820312 169.621094 C 224.957031 169.738281 225.113281 169.796875 225.308594 169.796875 C 225.503906 169.796875 225.660156 169.738281 225.777344 169.621094 C 225.914062 169.484375 225.992188 169.328125 225.992188 169.132812 C 225.992188 168.9375 225.914062 168.761719 225.777344 168.664062 C 225.660156 168.527344 225.503906 168.46875 225.308594 168.46875 Z M 224.859375 170.65625 L 224.859375 176.476562 L 225.757812 176.476562 L 225.757812 170.65625 Z M 224.859375 170.65625 "/>
<path style=" stroke:none;fill-rule:nonzero;fill:rgb(0%,0%,0%);fill-opacity:1;" d="M 230.160156 170.5 C 229.789062 170.5 229.4375 170.597656 229.125 170.773438 C 228.792969 170.949219 228.539062 171.183594 228.34375 171.515625 L 228.34375 170.65625 L 227.445312 170.65625 L 227.445312 176.476562 L 228.34375 176.476562 L 228.34375 172.960938 C 228.382812 172.433594 228.539062 172.023438 228.851562 171.710938 C 229.144531 171.417969 229.496094 171.261719 229.90625 171.261719 C 230.921875 171.261719 231.429688 171.828125 231.429688 172.960938 L 231.429688 176.476562 L 232.328125 176.476562 L 232.328125 172.902344 C 232.328125 171.300781 231.605469 170.5 230.160156 170.5 Z M 230.160156 170.5 "/>
<path style=" stroke:none;fill-rule:nonzero;fill:rgb(0%,0%,0%);fill-opacity:1;" d="M 236.117188 170.5 C 235.277344 170.5 234.613281 170.8125 234.125 171.417969 C 233.636719 171.984375 233.382812 172.707031 233.382812 173.566406 C 233.382812 174.503906 233.636719 175.246094 234.164062 175.8125 C 234.652344 176.359375 235.335938 176.632812 236.15625 176.632812 C 236.917969 176.632812 237.523438 176.417969 238.011719 175.988281 C 238.402344 175.617188 238.675781 175.167969 238.792969 174.601562 L 237.894531 174.601562 C 237.757812 175.011719 237.5625 175.324219 237.308594 175.519531 C 237.015625 175.753906 236.625 175.871094 236.15625 175.871094 C 235.609375 175.871094 235.160156 175.695312 234.847656 175.34375 C 234.535156 174.972656 234.378906 174.464844 234.320312 173.820312 L 238.910156 173.820312 C 238.890625 172.804688 238.675781 172.003906 238.246094 171.457031 C 237.757812 170.8125 237.054688 170.5 236.117188 170.5 Z M 236.15625 171.261719 C 237.25 171.261719 237.875 171.867188 237.972656 173.117188 L 234.339844 173.117188 C 234.398438 172.550781 234.574219 172.101562 234.90625 171.769531 C 235.21875 171.417969 235.628906 171.261719 236.15625 171.261719 Z M 236.15625 171.261719 "/>
<path style=" stroke:none;fill-rule:nonzero;fill:rgb(0%,0%,0%);fill-opacity:1;" d="M 77.691406 39.472656 L 77.691406 40.273438 L 80.523438 40.273438 L 80.523438 47.5 L 81.441406 47.5 L 81.441406 40.273438 L 84.273438 40.273438 L 84.273438 39.472656 Z M 77.691406 39.472656 "/>
<path style=" stroke:none;fill-rule:nonzero;fill:rgb(0%,0%,0%);fill-opacity:1;" d="M 85.90625 39.492188 C 85.710938 39.492188 85.554688 39.550781 85.417969 39.6875 C 85.28125 39.785156 85.222656 39.960938 85.222656 40.15625 C 85.222656 40.351562 85.28125 40.507812 85.417969 40.644531 C 85.554688 40.761719 85.710938 40.820312 85.90625 40.820312 C 86.101562 40.820312 86.257812 40.761719 86.375 40.644531 C 86.511719 40.507812 86.589844 40.351562 86.589844 40.15625 C 86.589844 39.960938 86.511719 39.785156 86.375 39.6875 C 86.257812 39.550781 86.101562 39.492188 85.90625 39.492188 Z M 85.457031 41.679688 L 85.457031 47.5 L 86.355469 47.5 L 86.355469 41.679688 Z M 85.457031 41.679688 "/>
<path style=" stroke:none;fill-rule:nonzero;fill:rgb(0%,0%,0%);fill-opacity:1;" d="M 90.582031 41.523438 C 89.917969 41.523438 89.371094 41.835938 88.941406 42.460938 L 88.941406 41.679688 L 88.042969 41.679688 L 88.042969 47.5 L 88.941406 47.5 L 88.941406 43.964844 C 88.941406 43.496094 89.078125 43.105469 89.351562 42.792969 C 89.605469 42.441406 89.957031 42.285156 90.367188 42.285156 C 91.246094 42.285156 91.695312 42.792969 91.695312 43.828125 L 91.695312 47.5 L 92.613281 47.5 L 92.613281 43.847656 C 92.613281 43.378906 92.730469 43.007812 93.003906 42.714844 C 93.238281 42.421875 93.570312 42.285156 93.960938 42.285156 C 94.449219 42.285156 94.800781 42.421875 95.035156 42.675781 C 95.25 42.929688 95.367188 43.320312 95.367188 43.828125 L 95.367188 47.5 L 96.265625 47.5 L 96.265625 43.691406 C 96.265625 43.027344 96.070312 42.5 95.71875 42.109375 C 95.328125 41.71875 94.839844 41.523438 94.234375 41.523438 C 93.824219 41.523438 93.492188 41.621094 93.21875 41.796875 C 92.90625 41.972656 92.632812 42.246094 92.398438 42.636719 C 92.066406 41.894531 91.460938 41.523438 90.582031 41.523438 Z M 90.582031 41.523438 "/>
<path style=" stroke:none;fill-rule:nonzero;fill:rgb(0%,0%,0%);fill-opacity:1;" d="M 100.046875 41.523438 C 99.207031 41.523438 98.542969 41.835938 98.054688 42.441406 C 97.566406 43.007812 97.3125 43.730469 97.3125 44.589844 C 97.3125 45.527344 97.566406 46.269531 98.09375 46.835938 C 98.582031 47.382812 99.265625 47.65625 100.085938 47.65625 C 100.847656 47.65625 101.453125 47.441406 101.941406 47.011719 C 102.332031 46.640625 102.605469 46.191406 102.722656 45.625 L 101.824219 45.625 C 101.6875 46.035156 101.492188 46.347656 101.238281 46.542969 C 100.945312 46.777344 100.554688 46.894531 100.085938 46.894531 C 99.539062 46.894531 99.089844 46.71875 98.777344 46.367188 C 98.464844 45.996094 98.308594 45.488281 98.25 44.84375 L 102.839844 44.84375 C 102.820312 43.828125 102.605469 43.027344 102.175781 42.480469 C 101.6875 41.835938 100.984375 41.523438 100.046875 41.523438 Z M 100.085938 42.285156 C 101.179688 42.285156 101.804688 42.890625 101.902344 44.140625 L 98.269531 44.140625 C 98.328125 43.574219 98.503906 43.125 98.835938 42.792969 C 99.148438 42.441406 99.558594 42.285156 100.085938 42.285156 Z M 100.085938 42.285156 "/>
<path style=" stroke:none;fill-rule:nonzero;fill:rgb(0%,0%,0%);fill-opacity:1;" d="M 132.402344 39.472656 L 132.402344 47.5 L 133.339844 47.5 L 133.339844 41.113281 L 133.359375 41.113281 L 136.152344 47.5 L 136.972656 47.5 L 139.765625 41.113281 L 139.785156 41.113281 L 139.785156 47.5 L 140.722656 47.5 L 140.722656 39.472656 L 139.570312 39.472656 L 136.582031 46.328125 L 136.542969 46.328125 L 133.554688 39.472656 Z M 132.402344 39.472656 "/>
<path style=" stroke:none;fill-rule:nonzero;fill:rgb(0%,0%,0%);fill-opacity:1;" d="M 144.746094 41.523438 C 144.0625 41.523438 143.496094 41.660156 143.066406 41.933594 C 142.597656 42.226562 142.304688 42.675781 142.167969 43.300781 L 143.066406 43.359375 C 143.164062 42.988281 143.339844 42.714844 143.652344 42.519531 C 143.925781 42.34375 144.277344 42.265625 144.6875 42.265625 C 145.703125 42.265625 146.210938 42.753906 146.210938 43.730469 L 146.210938 44.042969 L 144.824219 44.0625 C 143.945312 44.0625 143.261719 44.238281 142.792969 44.550781 C 142.246094 44.882812 141.992188 45.390625 141.992188 46.054688 C 141.992188 46.523438 142.167969 46.914062 142.539062 47.226562 C 142.890625 47.519531 143.339844 47.65625 143.925781 47.65625 C 144.472656 47.65625 144.960938 47.539062 145.390625 47.304688 C 145.742188 47.089844 146.054688 46.835938 146.269531 46.523438 L 146.269531 47.5 L 147.109375 47.5 L 147.109375 43.769531 C 147.109375 43.085938 146.933594 42.558594 146.601562 42.1875 C 146.191406 41.738281 145.585938 41.523438 144.746094 41.523438 Z M 146.210938 44.707031 L 146.210938 45.195312 C 146.210938 45.664062 145.996094 46.054688 145.585938 46.40625 C 145.15625 46.777344 144.667969 46.953125 144.121094 46.953125 C 143.769531 46.953125 143.476562 46.855469 143.242188 46.699219 C 143.027344 46.503906 142.910156 46.289062 142.910156 46.035156 C 142.910156 45.175781 143.574219 44.746094 144.882812 44.726562 Z M 146.210938 44.707031 "/>
<path style=" stroke:none;fill-rule:nonzero;fill:rgb(0%,0%,0%);fill-opacity:1;" d="M 151.015625 41.523438 C 150.15625 41.523438 149.472656 41.835938 148.964844 42.441406 C 148.515625 43.007812 148.28125 43.730469 148.28125 44.628906 C 148.28125 45.507812 148.515625 46.230469 148.964844 46.777344 C 149.453125 47.363281 150.136719 47.65625 151.015625 47.65625 C 151.71875 47.65625 152.304688 47.460938 152.734375 47.089844 C 153.183594 46.71875 153.476562 46.132812 153.613281 45.390625 L 152.714844 45.390625 C 152.578125 46.40625 151.992188 46.894531 151.015625 46.894531 C 150.429688 46.894531 149.980469 46.699219 149.667969 46.289062 C 149.355469 45.878906 149.199219 45.3125 149.199219 44.609375 C 149.199219 43.90625 149.355469 43.339844 149.6875 42.929688 C 150 42.5 150.449219 42.285156 151.015625 42.285156 C 151.484375 42.285156 151.855469 42.382812 152.148438 42.597656 C 152.421875 42.832031 152.597656 43.164062 152.675781 43.613281 L 153.574219 43.613281 C 153.476562 42.910156 153.203125 42.382812 152.753906 42.03125 C 152.304688 41.699219 151.738281 41.523438 151.015625 41.523438 Z M 151.015625 41.523438 "/>
<path style=" stroke:none;fill-rule:nonzero;fill:rgb(0%,0%,0%);fill-opacity:1;" d="M 154.667969 39.316406 L 154.667969 47.5 L 155.566406 47.5 L 155.566406 44.179688 C 155.566406 43.632812 155.703125 43.183594 156.015625 42.8125 C 156.308594 42.460938 156.679688 42.285156 157.128906 42.285156 C 157.617188 42.285156 157.988281 42.421875 158.242188 42.714844 C 158.496094 43.007812 158.632812 43.417969 158.632812 43.964844 L 158.632812 47.5 L 159.53125 47.5 L 159.53125 43.828125 C 159.53125 43.085938 159.355469 42.519531 158.984375 42.128906 C 158.632812 41.71875 158.105469 41.523438 157.421875 41.523438 C 157.03125 41.523438 156.679688 41.621094 156.367188 41.796875 C 156.035156 41.992188 155.761719 42.265625 155.566406 42.636719 L 155.566406 39.316406 Z M 154.667969 39.316406 "/>
<path style=" stroke:none;fill-rule:nonzero;fill:rgb(0%,0%,0%);fill-opacity:1;" d="M 161.667969 39.492188 C 161.472656 39.492188 161.316406 39.550781 161.179688 39.6875 C 161.042969 39.785156 160.984375 39.960938 160.984375 40.15625 C 160.984375 40.351562 161.042969 40.507812 161.179688 40.644531 C 161.316406 40.761719 161.472656 40.820312 161.667969 40.820312 C 161.863281 40.820312 162.019531 40.761719 162.136719 40.644531 C 162.273438 40.507812 162.351562 40.351562 162.351562 40.15625 C 162.351562 39.960938 162.273438 39.785156 162.136719 39.6875 C 162.019531 39.550781 161.863281 39.492188 161.667969 39.492188 Z M 161.21875 41.679688 L 161.21875 47.5 L 162.117188 47.5 L 162.117188 41.679688 Z M 161.21875 41.679688 "/>
<path style=" stroke:none;fill-rule:nonzero;fill:rgb(0%,0%,0%);fill-opacity:1;" d="M 166.519531 41.523438 C 166.148438 41.523438 165.796875 41.621094 165.484375 41.796875 C 165.152344 41.972656 164.898438 42.207031 164.703125 42.539062 L 164.703125 41.679688 L 163.804688 41.679688 L 163.804688 47.5 L 164.703125 47.5 L 164.703125 43.984375 C 164.742188 43.457031 164.898438 43.046875 165.210938 42.734375 C 165.503906 42.441406 165.855469 42.285156 166.265625 42.285156 C 167.28125 42.285156 167.789062 42.851562 167.789062 43.984375 L 167.789062 47.5 L 168.6875 47.5 L 168.6875 43.925781 C 168.6875 42.324219 167.964844 41.523438 166.519531 41.523438 Z M 166.519531 41.523438 "/>
<path style=" stroke:none;fill-rule:nonzero;fill:rgb(0%,0%,0%);fill-opacity:1;" d="M 172.476562 41.523438 C 171.636719 41.523438 170.972656 41.835938 170.484375 42.441406 C 169.996094 43.007812 169.742188 43.730469 169.742188 44.589844 C 169.742188 45.527344 169.996094 46.269531 170.523438 46.835938 C 171.011719 47.382812 171.695312 47.65625 172.515625 47.65625 C 173.277344 47.65625 173.882812 47.441406 174.371094 47.011719 C 174.761719 46.640625 175.035156 46.191406 175.152344 45.625 L 174.253906 45.625 C 174.117188 46.035156 173.921875 46.347656 173.667969 46.542969 C 173.375 46.777344 172.984375 46.894531 172.515625 46.894531 C 171.96875 46.894531 171.519531 46.71875 171.207031 46.367188 C 170.894531 45.996094 170.738281 45.488281 170.679688 44.84375 L 175.269531 44.84375 C 175.25 43.828125 175.035156 43.027344 174.605469 42.480469 C 174.117188 41.835938 173.414062 41.523438 172.476562 41.523438 Z M 172.515625 42.285156 C 173.609375 42.285156 174.234375 42.890625 174.332031 44.140625 L 170.699219 44.140625 C 170.757812 43.574219 170.933594 43.125 171.265625 42.792969 C 171.578125 42.441406 171.988281 42.285156 172.515625 42.285156 Z M 172.515625 42.285156 "/>
<path style=" stroke:none;fill-rule:nonzero;fill:rgb(0%,0%,0%);fill-opacity:1;" d="M 211.875 39.316406 L 211.875 47.5 L 212.714844 47.5 L 212.714844 46.542969 C 213.105469 47.285156 213.75 47.65625 214.648438 47.65625 C 215.488281 47.65625 216.152344 47.34375 216.640625 46.738281 C 217.070312 46.171875 217.285156 45.449219 217.285156 44.570312 C 217.285156 43.710938 217.070312 43.027344 216.640625 42.460938 C 216.171875 41.835938 215.507812 41.523438 214.6875 41.523438 C 213.867188 41.523438 213.222656 41.933594 212.773438 42.753906 L 212.773438 39.316406 Z M 214.492188 42.265625 C 215.136719 42.265625 215.605469 42.5 215.9375 42.949219 C 216.230469 43.339844 216.367188 43.886719 216.367188 44.570312 C 216.367188 45.273438 216.230469 45.820312 215.957031 46.230469 C 215.644531 46.679688 215.15625 46.914062 214.53125 46.914062 C 213.945312 46.914062 213.496094 46.699219 213.183594 46.230469 C 212.890625 45.839844 212.734375 45.3125 212.734375 44.648438 L 212.734375 44.550781 C 212.734375 43.867188 212.890625 43.320312 213.222656 42.890625 C 213.554688 42.480469 213.964844 42.265625 214.492188 42.265625 Z M 214.492188 42.265625 "/>
<path style=" stroke:none;fill-rule:nonzero;fill:rgb(0%,0%,0%);fill-opacity:1;" d="M 217.824219 41.679688 L 220.128906 47.363281 L 219.132812 49.726562 L 220.109375 49.726562 L 223.292969 41.679688 L 222.296875 41.679688 L 220.578125 46.269531 L 218.800781 41.679688 Z M 217.824219 41.679688 "/>
<path style="fill-rule:nonzero;fill:rgb(69.803922%,85.098039%,100%);fill-opacity:1;stroke-width:1;stroke-linecap:round;stroke-linejoin:round;stroke:rgb(0%,0%,0%);stroke-opacity:1;stroke-miterlimit:10;" d="M 72.28125 111.1 L 98.28125 111.1 L 98.28125 131.1 L 72.28125 131.1 Z M 72.28125 111.1 " transform="matrix(1.25,0,0,1.25,-16.25,-26.25)"/>
<path style=" stroke:none;fill-rule:nonzero;fill:rgb(0%,0%,0%);fill-opacity:1;" d="M 84.675781 128.109375 L 84.675781 120.0625 L 86.296875 120.0625 L 86.296875 123.226562 L 89.5 123.226562 L 89.5 120.0625 L 91.121094 120.0625 L 91.121094 128.109375 L 89.5 128.109375 L 89.5 124.59375 L 86.296875 124.59375 L 86.296875 128.109375 Z M 84.675781 128.109375 "/>
<path style=" stroke:none;fill-rule:nonzero;fill:rgb(0%,0%,0%);fill-opacity:1;" d="M 95.242188 130.609375 L 94.480469 130.609375 L 94.480469 125.707031 C 94.285156 125.890625 94.035156 126.070312 93.738281 126.253906 C 93.433594 126.421875 93.171875 126.554688 92.9375 126.644531 L 92.9375 125.882812 C 93.367188 125.6875 93.738281 125.445312 94.050781 125.160156 C 94.371094 124.875 94.605469 124.59375 94.753906 124.320312 L 95.242188 124.320312 Z M 95.242188 130.609375 "/>
<path style="fill-rule:nonzero;fill:rgb(69.803922%,85.098039%,100%);fill-opacity:1;stroke-width:1;stroke-linecap:round;stroke-linejoin:round;stroke:rgb(0%,0%,0%);stroke-opacity:1;stroke-miterlimit:10;" d="M 122.89375 111.1 L 148.89375 111.1 L 148.89375 131.1 L 122.89375 131.1 Z M 122.89375 111.1 " transform="matrix(1.25,0,0,1.25,-16.25,-26.25)"/>
<path style=" stroke:none;fill-rule:nonzero;fill:rgb(0%,0%,0%);fill-opacity:1;" d="M 147.941406 128.109375 L 147.941406 120.0625 L 149.5625 120.0625 L 149.5625 123.226562 L 152.765625 123.226562 L 152.765625 120.0625 L 154.386719 120.0625 L 154.386719 128.109375 L 152.765625 128.109375 L 152.765625 124.59375 L 149.5625 124.59375 L 149.5625 128.109375 Z M 147.941406 128.109375 "/>
<path style=" stroke:none;fill-rule:nonzero;fill:rgb(0%,0%,0%);fill-opacity:1;" d="M 159.660156 129.867188 L 159.660156 130.609375 L 155.519531 130.609375 C 155.503906 130.425781 155.53125 130.25 155.597656 130.082031 C 155.699219 129.796875 155.871094 129.515625 156.105469 129.242188 C 156.339844 128.96875 156.675781 128.648438 157.121094 128.285156 C 157.796875 127.738281 158.253906 127.300781 158.488281 126.976562 C 158.734375 126.636719 158.859375 126.324219 158.859375 126.039062 C 158.859375 125.738281 158.746094 125.484375 158.527344 125.277344 C 158.304688 125.070312 158.019531 124.964844 157.667969 124.964844 C 157.300781 124.964844 157.007812 125.074219 156.789062 125.296875 C 156.566406 125.519531 156.449219 125.824219 156.4375 126.214844 L 155.65625 126.136719 C 155.707031 125.539062 155.910156 125.089844 156.261719 124.789062 C 156.613281 124.476562 157.085938 124.320312 157.6875 124.320312 C 158.285156 124.320312 158.761719 124.488281 159.113281 124.828125 C 159.464844 125.152344 159.640625 125.5625 159.640625 126.058594 C 159.640625 126.304688 159.585938 126.554688 159.484375 126.800781 C 159.378906 127.035156 159.210938 127.289062 158.976562 127.5625 C 158.742188 127.835938 158.34375 128.199219 157.785156 128.65625 C 157.328125 129.046875 157.035156 129.3125 156.90625 129.457031 C 156.773438 129.585938 156.664062 129.722656 156.574219 129.867188 Z M 159.660156 129.867188 "/>
<path style="fill-rule:nonzero;fill:rgb(69.803922%,85.098039%,100%);fill-opacity:1;stroke-width:1;stroke-linecap:round;stroke-linejoin:round;stroke:rgb(0%,0%,0%);stroke-opacity:1;stroke-miterlimit:10;" d="M 173.80625 111.1 L 199.80625 111.1 L 199.80625 131.1 L 173.80625 131.1 Z M 173.80625 111.1 " transform="matrix(1.25,0,0,1.25,-16.25,-26.25)"/>
<path style=" stroke:none;fill-rule:nonzero;fill:rgb(0%,0%,0%);fill-opacity:1;" d="M 211.582031 128.109375 L 211.582031 120.0625 L 213.203125 120.0625 L 213.203125 123.226562 L 216.40625 123.226562 L 216.40625 120.0625 L 218.027344 120.0625 L 218.027344 128.109375 L 216.40625 128.109375 L 216.40625 124.59375 L 213.203125 124.59375 L 213.203125 128.109375 Z M 211.582031 128.109375 "/>
<path style=" stroke:none;fill-rule:nonzero;fill:rgb(0%,0%,0%);fill-opacity:1;" d="M 219.257812 128.949219 L 220.019531 128.851562 C 220.109375 129.292969 220.257812 129.613281 220.46875 129.808594 C 220.6875 129.992188 220.949219 130.082031 221.25 130.082031 C 221.613281 130.082031 221.917969 129.957031 222.167969 129.710938 C 222.414062 129.464844 222.539062 129.152344 222.539062 128.773438 C 222.539062 128.421875 222.421875 128.136719 222.1875 127.914062 C 221.964844 127.679688 221.671875 127.5625 221.308594 127.5625 C 221.164062 127.5625 220.980469 127.589844 220.761719 127.640625 L 220.859375 126.976562 C 220.910156 126.976562 220.949219 126.976562 220.976562 126.976562 C 221.300781 126.976562 221.59375 126.890625 221.855469 126.722656 C 222.128906 126.554688 222.265625 126.285156 222.265625 125.921875 C 222.265625 125.648438 222.167969 125.421875 221.972656 125.238281 C 221.777344 125.042969 221.527344 124.945312 221.230469 124.945312 C 220.929688 124.945312 220.683594 125.042969 220.488281 125.238281 C 220.292969 125.421875 220.160156 125.699219 220.097656 126.078125 L 219.335938 125.941406 C 219.425781 125.433594 219.632812 125.035156 219.960938 124.75 C 220.296875 124.464844 220.714844 124.320312 221.210938 124.320312 C 221.546875 124.320312 221.859375 124.398438 222.148438 124.554688 C 222.445312 124.699219 222.667969 124.894531 222.8125 125.140625 C 222.96875 125.386719 223.046875 125.65625 223.046875 125.941406 C 223.046875 126.214844 222.972656 126.460938 222.832031 126.683594 C 222.6875 126.90625 222.472656 127.082031 222.1875 127.210938 C 222.550781 127.300781 222.835938 127.484375 223.046875 127.757812 C 223.253906 128.019531 223.359375 128.351562 223.359375 128.753906 C 223.359375 129.300781 223.15625 129.769531 222.753906 130.160156 C 222.363281 130.539062 221.859375 130.726562 221.25 130.726562 C 220.703125 130.726562 220.246094 130.5625 219.882812 130.238281 C 219.515625 129.898438 219.308594 129.46875 219.257812 128.949219 Z M 219.257812 128.949219 "/>
<path style="fill-rule:nonzero;fill:rgb(40%,74.901961%,100%);fill-opacity:1;stroke-width:1;stroke-linecap:round;stroke-linejoin:round;stroke:rgb(0%,0%,0%);stroke-opacity:1;stroke-miterlimit:10;" d="M 72.28125 74 L 98.28125 74 L 98.28125 94 L 72.28125 94 Z M 72.28125 74 " transform="matrix(1.25,0,0,1.25,-16.25,-26.25)"/>
<path style=" stroke:none;fill-rule:nonzero;fill:rgb(0%,0%,0%);fill-opacity:1;" d="M 84.03125 77.746094 C 84.03125 76.925781 84.152344 76.242188 84.402344 75.695312 C 84.582031 75.28125 84.832031 74.910156 85.144531 74.582031 C 85.464844 74.261719 85.816406 74.015625 86.199219 73.859375 C 86.691406 73.65625 87.261719 73.546875 87.917969 73.546875 C 89.113281 73.546875 90.066406 73.917969 90.769531 74.660156 C 91.480469 75.394531 91.84375 76.410156 91.84375 77.707031 C 91.84375 79.011719 91.480469 80.03125 90.769531 80.773438 C 90.066406 81.507812 89.128906 81.867188 87.957031 81.867188 C 86.753906 81.867188 85.796875 81.507812 85.085938 80.773438 C 84.382812 80.046875 84.03125 79.035156 84.03125 77.746094 Z M 85.710938 77.707031 C 85.710938 78.621094 85.914062 79.308594 86.335938 79.777344 C 86.765625 80.246094 87.296875 80.480469 87.9375 80.480469 C 88.585938 80.480469 89.117188 80.246094 89.539062 79.777344 C 89.953125 79.308594 90.164062 78.605469 90.164062 77.667969 C 90.164062 76.761719 89.957031 76.078125 89.558594 75.617188 C 89.152344 75.164062 88.609375 74.933594 87.9375 74.933594 C 87.273438 74.933594 86.730469 75.164062 86.316406 75.617188 C 85.910156 76.078125 85.710938 76.769531 85.710938 77.707031 Z M 85.710938 77.707031 "/>
<path style=" stroke:none;fill-rule:nonzero;fill:rgb(0%,0%,0%);fill-opacity:1;" d="M 95.554688 84.230469 L 94.792969 84.230469 L 94.792969 79.328125 C 94.597656 79.515625 94.347656 79.695312 94.050781 79.875 C 93.746094 80.046875 93.484375 80.179688 93.25 80.265625 L 93.25 79.503906 C 93.679688 79.308594 94.050781 79.070312 94.363281 78.78125 C 94.683594 78.5 94.917969 78.214844 95.066406 77.941406 L 95.554688 77.941406 Z M 95.554688 84.230469 "/>
<path style="fill-rule:nonzero;fill:rgb(40%,74.901961%,100%);fill-opacity:1;stroke-width:1;stroke-linecap:round;stroke-linejoin:round;stroke:rgb(0%,0%,0%);stroke-opacity:1;stroke-miterlimit:10;" d="M 122.89375 74 L 148.89375 74 L 148.89375 94 L 122.89375 94 Z M 122.89375 74 " transform="matrix(1.25,0,0,1.25,-16.25,-26.25)"/>
<path style=" stroke:none;fill-rule:nonzero;fill:rgb(0%,0%,0%);fill-opacity:1;" d="M 147.296875 77.746094 C 147.296875 76.925781 147.417969 76.242188 147.667969 75.695312 C 147.847656 75.28125 148.097656 74.910156 148.410156 74.582031 C 148.734375 74.261719 149.085938 74.015625 149.464844 73.859375 C 149.957031 73.65625 150.53125 73.546875 151.183594 73.546875 C 152.378906 73.546875 153.332031 73.917969 154.035156 74.660156 C 154.75 75.394531 155.109375 76.410156 155.109375 77.707031 C 155.109375 79.011719 154.75 80.03125 154.035156 80.773438 C 153.332031 81.507812 152.394531 81.867188 151.222656 81.867188 C 150.023438 81.867188 149.066406 81.507812 148.351562 80.773438 C 147.648438 80.046875 147.296875 79.035156 147.296875 77.746094 Z M 148.976562 77.707031 C 148.976562 78.621094 149.183594 79.308594 149.601562 79.777344 C 150.03125 80.246094 150.5625 80.480469 151.203125 80.480469 C 151.851562 80.480469 152.386719 80.246094 152.804688 79.777344 C 153.21875 79.308594 153.429688 78.605469 153.429688 77.667969 C 153.429688 76.761719 153.226562 76.078125 152.824219 75.617188 C 152.417969 75.164062 151.878906 74.933594 151.203125 74.933594 C 150.539062 74.933594 149.996094 75.164062 149.582031 75.617188 C 149.175781 76.078125 148.976562 76.769531 148.976562 77.707031 Z M 148.976562 77.707031 "/>
<path style=" stroke:none;fill-rule:nonzero;fill:rgb(0%,0%,0%);fill-opacity:1;" d="M 159.972656 83.488281 L 159.972656 84.230469 L 155.832031 84.230469 C 155.816406 84.050781 155.84375 83.875 155.910156 83.703125 C 156.011719 83.421875 156.183594 83.136719 156.417969 82.863281 C 156.652344 82.589844 156.988281 82.273438 157.433594 81.90625 C 158.109375 81.359375 158.566406 80.925781 158.800781 80.597656 C 159.046875 80.261719 159.171875 79.949219 159.171875 79.660156 C 159.171875 79.363281 159.058594 79.109375 158.839844 78.898438 C 158.617188 78.695312 158.332031 78.585938 157.980469 78.585938 C 157.613281 78.585938 157.320312 78.699219 157.101562 78.917969 C 156.878906 79.144531 156.761719 79.445312 156.75 79.835938 L 155.96875 79.757812 C 156.019531 79.164062 156.222656 78.714844 156.574219 78.410156 C 156.925781 78.097656 157.398438 77.941406 158 77.941406 C 158.597656 77.941406 159.074219 78.113281 159.425781 78.449219 C 159.777344 78.777344 159.953125 79.1875 159.953125 79.679688 C 159.953125 79.929688 159.898438 80.179688 159.796875 80.421875 C 159.691406 80.65625 159.523438 80.910156 159.289062 81.183594 C 159.054688 81.457031 158.65625 81.824219 158.097656 82.277344 C 157.640625 82.667969 157.347656 82.9375 157.21875 83.078125 C 157.085938 83.210938 156.976562 83.347656 156.886719 83.488281 Z M 159.972656 83.488281 "/>
<path style="fill-rule:nonzero;fill:rgb(40%,74.901961%,100%);fill-opacity:1;stroke-width:1;stroke-linecap:round;stroke-linejoin:round;stroke:rgb(0%,0%,0%);stroke-opacity:1;stroke-miterlimit:10;" d="M 173.80625 74 L 199.80625 74 L 199.80625 94 L 173.80625 94 Z M 173.80625 74 " transform="matrix(1.25,0,0,1.25,-16.25,-26.25)"/>
<path style=" stroke:none;fill-rule:nonzero;fill:rgb(0%,0%,0%);fill-opacity:1;" d="M 210.9375 77.746094 C 210.9375 76.925781 211.058594 76.242188 211.308594 75.695312 C 211.488281 75.28125 211.738281 74.910156 212.050781 74.582031 C 212.375 74.261719 212.726562 74.015625 213.105469 73.859375 C 213.597656 73.65625 214.171875 73.546875 214.824219 73.546875 C 216.019531 73.546875 216.972656 73.917969 217.675781 74.660156 C 218.390625 75.394531 218.75 76.410156 218.75 77.707031 C 218.75 79.011719 218.390625 80.03125 217.675781 80.773438 C 216.972656 81.507812 216.035156 81.867188 214.863281 81.867188 C 213.664062 81.867188 212.707031 81.507812 211.992188 80.773438 C 211.289062 80.046875 210.9375 79.035156 210.9375 77.746094 Z M 212.617188 77.707031 C 212.617188 78.621094 212.824219 79.308594 213.242188 79.777344 C 213.671875 80.246094 214.203125 80.480469 214.84375 80.480469 C 215.492188 80.480469 216.027344 80.246094 216.445312 79.777344 C 216.859375 79.308594 217.070312 78.605469 217.070312 77.667969 C 217.070312 76.761719 216.867188 76.078125 216.464844 75.617188 C 216.058594 75.164062 215.519531 74.933594 214.84375 74.933594 C 214.179688 74.933594 213.636719 75.164062 213.222656 75.617188 C 212.816406 76.078125 212.617188 76.769531 212.617188 77.707031 Z M 212.617188 77.707031 "/>
<path style=" stroke:none;fill-rule:nonzero;fill:rgb(0%,0%,0%);fill-opacity:1;" d="M 219.570312 82.570312 L 220.332031 82.472656 C 220.421875 82.917969 220.570312 83.234375 220.78125 83.429688 C 221 83.617188 221.261719 83.703125 221.5625 83.703125 C 221.925781 83.703125 222.230469 83.582031 222.480469 83.332031 C 222.726562 83.089844 222.851562 82.777344 222.851562 82.394531 C 222.851562 82.042969 222.734375 81.761719 222.5 81.535156 C 222.277344 81.300781 221.984375 81.183594 221.621094 81.183594 C 221.476562 81.183594 221.292969 81.214844 221.074219 81.261719 L 221.171875 80.597656 C 221.222656 80.597656 221.261719 80.597656 221.289062 80.597656 C 221.613281 80.597656 221.90625 80.515625 222.167969 80.34375 C 222.441406 80.179688 222.578125 79.910156 222.578125 79.542969 C 222.578125 79.269531 222.480469 79.046875 222.285156 78.859375 C 222.089844 78.664062 221.839844 78.566406 221.542969 78.566406 C 221.242188 78.566406 220.996094 78.664062 220.800781 78.859375 C 220.605469 79.046875 220.472656 79.324219 220.410156 79.699219 L 219.648438 79.5625 C 219.738281 79.054688 219.945312 78.660156 220.273438 78.371094 C 220.609375 78.089844 221.027344 77.941406 221.523438 77.941406 C 221.859375 77.941406 222.171875 78.019531 222.460938 78.175781 C 222.757812 78.324219 222.980469 78.519531 223.125 78.761719 C 223.28125 79.011719 223.359375 79.28125 223.359375 79.5625 C 223.359375 79.835938 223.285156 80.085938 223.144531 80.304688 C 223 80.53125 222.785156 80.707031 222.5 80.832031 C 222.863281 80.925781 223.148438 81.105469 223.359375 81.378906 C 223.566406 81.644531 223.671875 81.976562 223.671875 82.375 C 223.671875 82.921875 223.46875 83.390625 223.066406 83.78125 C 222.675781 84.164062 222.171875 84.347656 221.5625 84.347656 C 221.015625 84.347656 220.558594 84.1875 220.195312 83.859375 C 219.828125 83.523438 219.621094 83.09375 219.570312 82.570312 Z M 219.570312 82.570312 "/>
<path style="fill:none;stroke-width:1;stroke-linecap:round;stroke-linejoin:round;stroke:rgb(0%,0%,0%);stroke-opacity:1;stroke-miterlimit:10;" d="M 98.28125 121.1 L 116.99375 121.1 " transform="matrix(1.25,0,0,1.25,-16.25,-26.25)"/>
<path style="fill:none;stroke-width:1;stroke-linecap:butt;stroke-linejoin:miter;stroke:rgb(0%,0%,0%);stroke-opacity:1;stroke-miterlimit:10;" d="M 120.99375 121.1 L 116.99375 121.1 M 116.99375 119.6 L 120.99375 121.1 L 116.99375 122.6 " transform="matrix(1.25,0,0,1.25,-16.25,-26.25)"/>
<path style="fill:none;stroke-width:1;stroke-linecap:round;stroke-linejoin:round;stroke:rgb(0%,0%,0%);stroke-opacity:1;stroke-miterlimit:10;" d="M 148.89375 121.1 L 167.90625 121.1 " transform="matrix(1.25,0,0,1.25,-16.25,-26.25)"/>
<path style="fill:none;stroke-width:1;stroke-linecap:butt;stroke-linejoin:miter;stroke:rgb(0%,0%,0%);stroke-opacity:1;stroke-miterlimit:10;" d="M 171.90625 121.1 L 167.90625 121.1 M 167.90625 119.6 L 171.90625 121.1 L 167.90625 122.6 " transform="matrix(1.25,0,0,1.25,-16.25,-26.25)"/>
<path style="fill:none;stroke-width:1;stroke-linecap:round;stroke-linejoin:round;stroke:rgb(0%,0%,0%);stroke-opacity:1;stroke-miterlimit:10;" d="M 85.28125 111.1 L 85.28125 99.9 " transform="matrix(1.25,0,0,1.25,-16.25,-26.25)"/>
<path style="fill:none;stroke-width:1;stroke-linecap:butt;stroke-linejoin:miter;stroke:rgb(0%,0%,0%);stroke-opacity:1;stroke-miterlimit:10;" d="M 85.28125 95.9 L 85.28125 99.9 M 83.78125 99.9 L 85.28125 95.9 L 86.78125 99.9 " transform="matrix(1.25,0,0,1.25,-16.25,-26.25)"/>
<path style="fill:none;stroke-width:1;stroke-linecap:round;stroke-linejoin:round;stroke:rgb(0%,0%,0%);stroke-opacity:1;stroke-miterlimit:10;" d="M 135.89375 111.1 L 135.89375 99.9 " transform="matrix(1.25,0,0,1.25,-16.25,-26.25)"/>
<path style="fill:none;stroke-width:1;stroke-linecap:butt;stroke-linejoin:miter;stroke:rgb(0%,0%,0%);stroke-opacity:1;stroke-miterlimit:10;" d="M 135.89375 95.9 L 135.89375 99.9 M 134.39375 99.9 L 135.89375 95.9 L 137.39375 99.9 " transform="matrix(1.25,0,0,1.25,-16.25,-26.25)"/>
<path style="fill:none;stroke-width:1;stroke-linecap:round;stroke-linejoin:round;stroke:rgb(0%,0%,0%);stroke-opacity:1;stroke-miterlimit:10;" d="M 186.80625 111.1 L 186.80625 99.9 " transform="matrix(1.25,0,0,1.25,-16.25,-26.25)"/>
<path style="fill:none;stroke-width:1;stroke-linecap:butt;stroke-linejoin:miter;stroke:rgb(0%,0%,0%);stroke-opacity:1;stroke-miterlimit:10;" d="M 186.80625 95.9 L 186.80625 99.9 M 185.30625 99.9 L 186.80625 95.9 L 188.30625 99.9 " transform="matrix(1.25,0,0,1.25,-16.25,-26.25)"/>
<path style="fill:none;stroke-width:1;stroke-linecap:round;stroke-linejoin:round;stroke:rgb(0%,0%,0%);stroke-opacity:1;stroke-miterlimit:10;" d="M 85.28125 147.18125 L 85.28125 137 " transform="matrix(1.25,0,0,1.25,-16.25,-26.25)"/>
<path style="fill:none;stroke-width:1;stroke-linecap:butt;stroke-linejoin:miter;stroke:rgb(0%,0%,0%);stroke-opacity:1;stroke-miterlimit:10;" d="M 85.28125 133 L 85.28125 137 M 83.78125 137 L 85.28125 133 L 86.78125 137 " transform="matrix(1.25,0,0,1.25,-16.25,-26.25)"/>
<path style="fill:none;stroke-width:1;stroke-linecap:round;stroke-linejoin:round;stroke:rgb(0%,0%,0%);stroke-opacity:1;stroke-miterlimit:10;" d="M 135.89375 147.18125 L 135.89375 137 " transform="matrix(1.25,0,0,1.25,-16.25,-26.25)"/>
<path style="fill:none;stroke-width:1;stroke-linecap:butt;stroke-linejoin:miter;stroke:rgb(0%,0%,0%);stroke-opacity:1;stroke-miterlimit:10;" d="M 135.89375 133 L 135.89375 137 M 134.39375 137 L 135.89375 133 L 137.39375 137 " transform="matrix(1.25,0,0,1.25,-16.25,-26.25)"/>
<path style="fill:none;stroke-width:1;stroke-linecap:round;stroke-linejoin:round;stroke:rgb(0%,0%,0%);stroke-opacity:1;stroke-miterlimit:10;" d="M 186.80625 147.18125 L 186.80625 137 " transform="matrix(1.25,0,0,1.25,-16.25,-26.25)"/>
<path style="fill:none;stroke-width:1;stroke-linecap:butt;stroke-linejoin:miter;stroke:rgb(0%,0%,0%);stroke-opacity:1;stroke-miterlimit:10;" d="M 186.80625 133 L 186.80625 137 M 185.30625 137 L 186.80625 133 L 188.30625 137 " transform="matrix(1.25,0,0,1.25,-16.25,-26.25)"/>
<path style=" stroke:none;fill-rule:nonzero;fill:rgb(0%,0%,0%);fill-opacity:1;" d="M 9.328125 113.347656 L 9.328125 121.375 L 10.265625 121.375 L 10.265625 117.625 L 14.914062 117.625 L 14.914062 121.375 L 15.832031 121.375 L 15.832031 113.347656 L 14.914062 113.347656 L 14.914062 116.824219 L 10.265625 116.824219 L 10.265625 113.347656 Z M 9.328125 113.347656 "/>
<path style=" stroke:none;fill-rule:nonzero;fill:rgb(0%,0%,0%);fill-opacity:1;" d="M 18.070312 113.367188 C 17.875 113.367188 17.71875 113.425781 17.582031 113.5625 C 17.445312 113.660156 17.386719 113.835938 17.386719 114.03125 C 17.386719 114.226562 17.445312 114.382812 17.582031 114.519531 C 17.71875 114.636719 17.875 114.695312 18.070312 114.695312 C 18.265625 114.695312 18.421875 114.636719 18.539062 114.519531 C 18.675781 114.382812 18.753906 114.226562 18.753906 114.03125 C 18.753906 113.835938 18.675781 113.660156 18.539062 113.5625 C 18.421875 113.425781 18.265625 113.367188 18.070312 113.367188 Z M 17.621094 115.554688 L 17.621094 121.375 L 18.519531 121.375 L 18.519531 115.554688 Z M 17.621094 115.554688 "/>
<path style=" stroke:none;fill-rule:nonzero;fill:rgb(0%,0%,0%);fill-opacity:1;" d="M 24.507812 113.191406 L 24.507812 116.628906 C 24.058594 115.808594 23.414062 115.398438 22.574219 115.398438 C 21.753906 115.398438 21.109375 115.710938 20.640625 116.335938 C 20.191406 116.902344 19.976562 117.585938 19.976562 118.445312 C 19.976562 119.324219 20.191406 120.046875 20.640625 120.613281 C 21.109375 121.21875 21.773438 121.53125 22.632812 121.53125 C 23.492188 121.53125 24.15625 121.160156 24.566406 120.417969 L 24.566406 121.375 L 25.40625 121.375 L 25.40625 113.191406 Z M 22.769531 116.140625 C 23.296875 116.140625 23.707031 116.355469 24.039062 116.765625 C 24.351562 117.195312 24.527344 117.742188 24.527344 118.425781 L 24.527344 118.523438 C 24.527344 119.1875 24.371094 119.714844 24.097656 120.105469 C 23.765625 120.574219 23.316406 120.789062 22.730469 120.789062 C 22.105469 120.789062 21.636719 120.554688 21.324219 120.105469 C 21.03125 119.695312 20.894531 119.148438 20.894531 118.445312 C 20.894531 117.761719 21.03125 117.214844 21.324219 116.824219 C 21.636719 116.375 22.125 116.140625 22.769531 116.140625 Z M 22.769531 116.140625 "/>
<path style=" stroke:none;fill-rule:nonzero;fill:rgb(0%,0%,0%);fill-opacity:1;" d="M 31.097656 113.191406 L 31.097656 116.628906 C 30.648438 115.808594 30.003906 115.398438 29.164062 115.398438 C 28.34375 115.398438 27.699219 115.710938 27.230469 116.335938 C 26.78125 116.902344 26.566406 117.585938 26.566406 118.445312 C 26.566406 119.324219 26.78125 120.046875 27.230469 120.613281 C 27.699219 121.21875 28.363281 121.53125 29.222656 121.53125 C 30.082031 121.53125 30.746094 121.160156 31.15625 120.417969 L 31.15625 121.375 L 31.996094 121.375 L 31.996094 113.191406 Z M 29.359375 116.140625 C 29.886719 116.140625 30.296875 116.355469 30.628906 116.765625 C 30.941406 117.195312 31.117188 117.742188 31.117188 118.425781 L 31.117188 118.523438 C 31.117188 119.1875 30.960938 119.714844 30.6875 120.105469 C 30.355469 120.574219 29.90625 120.789062 29.320312 120.789062 C 28.695312 120.789062 28.226562 120.554688 27.914062 120.105469 C 27.621094 119.695312 27.484375 119.148438 27.484375 118.445312 C 27.484375 117.761719 27.621094 117.214844 27.914062 116.824219 C 28.226562 116.375 28.714844 116.140625 29.359375 116.140625 Z M 29.359375 116.140625 "/>
<path style=" stroke:none;fill-rule:nonzero;fill:rgb(0%,0%,0%);fill-opacity:1;" d="M 35.777344 115.398438 C 34.9375 115.398438 34.273438 115.710938 33.785156 116.316406 C 33.296875 116.882812 33.042969 117.605469 33.042969 118.464844 C 33.042969 119.402344 33.296875 120.144531 33.824219 120.710938 C 34.3125 121.257812 34.996094 121.53125 35.816406 121.53125 C 36.578125 121.53125 37.183594 121.316406 37.671875 120.886719 C 38.0625 120.515625 38.335938 120.066406 38.453125 119.5 L 37.554688 119.5 C 37.417969 119.910156 37.222656 120.222656 36.96875 120.417969 C 36.675781 120.652344 36.285156 120.769531 35.816406 120.769531 C 35.269531 120.769531 34.820312 120.59375 34.507812 120.242188 C 34.195312 119.871094 34.039062 119.363281 33.980469 118.71875 L 38.570312 118.71875 C 38.550781 117.703125 38.335938 116.902344 37.90625 116.355469 C 37.417969 115.710938 36.714844 115.398438 35.777344 115.398438 Z M 35.816406 116.160156 C 36.910156 116.160156 37.535156 116.765625 37.632812 118.015625 L 34 118.015625 C 34.058594 117.449219 34.234375 117 34.566406 116.667969 C 34.878906 116.316406 35.289062 116.160156 35.816406 116.160156 Z M 35.816406 116.160156 "/>
<path style=" stroke:none;fill-rule:nonzero;fill:rgb(0%,0%,0%);fill-opacity:1;" d="M 42.351562 115.398438 C 41.980469 115.398438 41.628906 115.496094 41.316406 115.671875 C 40.984375 115.847656 40.730469 116.082031 40.535156 116.414062 L 40.535156 115.554688 L 39.636719 115.554688 L 39.636719 121.375 L 40.535156 121.375 L 40.535156 117.859375 C 40.574219 117.332031 40.730469 116.921875 41.042969 116.609375 C 41.335938 116.316406 41.6875 116.160156 42.097656 116.160156 C 43.113281 116.160156 43.621094 116.726562 43.621094 117.859375 L 43.621094 121.375 L 44.519531 121.375 L 44.519531 117.800781 C 44.519531 116.199219 43.796875 115.398438 42.351562 115.398438 Z M 42.351562 115.398438 "/>
<path style=" stroke:none;fill-rule:nonzero;fill:rgb(0%,0%,0%);fill-opacity:1;" d="M 16.527344 131.648438 C 15.882812 131.648438 15.335938 131.804688 14.925781 132.097656 C 14.496094 132.390625 14.28125 132.761719 14.28125 133.269531 C 14.28125 133.757812 14.496094 134.128906 14.945312 134.402344 C 15.21875 134.578125 15.6875 134.753906 16.390625 134.910156 C 17.015625 135.066406 17.425781 135.203125 17.621094 135.28125 C 17.972656 135.457031 18.167969 135.710938 18.167969 136.042969 C 18.167969 136.6875 17.640625 137.019531 16.605469 137.019531 C 16.117188 137.019531 15.746094 136.941406 15.492188 136.765625 C 15.238281 136.550781 15.082031 136.238281 15.003906 135.769531 L 14.125 135.769531 C 14.261719 137.117188 15.101562 137.78125 16.625 137.78125 C 18.265625 137.78125 19.085938 137.175781 19.085938 135.984375 C 19.085938 135.476562 18.851562 135.085938 18.402344 134.792969 C 18.089844 134.597656 17.601562 134.421875 16.898438 134.246094 C 16.3125 134.089844 15.902344 133.972656 15.6875 133.875 C 15.355469 133.699219 15.199219 133.484375 15.199219 133.230469 C 15.199219 132.976562 15.316406 132.78125 15.570312 132.625 C 15.804688 132.46875 16.117188 132.410156 16.527344 132.410156 C 16.976562 132.410156 17.347656 132.488281 17.582031 132.683594 C 17.816406 132.839844 17.953125 133.09375 18.03125 133.464844 L 18.910156 133.464844 C 18.753906 132.253906 17.972656 131.648438 16.527344 131.648438 Z M 16.527344 131.648438 "/>
<path style=" stroke:none;fill-rule:nonzero;fill:rgb(0%,0%,0%);fill-opacity:1;" d="M 21.703125 129.929688 L 20.824219 130.300781 L 20.824219 131.804688 L 19.652344 131.804688 L 19.652344 132.566406 L 20.824219 132.566406 L 20.824219 136.257812 C 20.824219 136.707031 20.902344 137.019531 21.097656 137.253906 C 21.292969 137.507812 21.644531 137.625 22.132812 137.625 L 22.992188 137.625 L 22.992188 136.863281 L 22.25 136.863281 C 22.054688 136.863281 21.917969 136.824219 21.839844 136.726562 C 21.742188 136.628906 21.703125 136.472656 21.703125 136.257812 L 21.703125 132.566406 L 23.148438 132.566406 L 23.148438 131.804688 L 21.703125 131.804688 Z M 21.703125 129.929688 "/>
<path style=" stroke:none;fill-rule:nonzero;fill:rgb(0%,0%,0%);fill-opacity:1;" d="M 26.671875 131.648438 C 25.988281 131.648438 25.421875 131.785156 24.992188 132.058594 C 24.523438 132.351562 24.230469 132.800781 24.09375 133.425781 L 24.992188 133.484375 C 25.089844 133.113281 25.265625 132.839844 25.578125 132.644531 C 25.851562 132.46875 26.203125 132.390625 26.613281 132.390625 C 27.628906 132.390625 28.136719 132.878906 28.136719 133.855469 L 28.136719 134.167969 L 26.75 134.1875 C 25.871094 134.1875 25.1875 134.363281 24.71875 134.675781 C 24.171875 135.007812 23.917969 135.515625 23.917969 136.179688 C 23.917969 136.648438 24.09375 137.039062 24.464844 137.351562 C 24.816406 137.644531 25.265625 137.78125 25.851562 137.78125 C 26.398438 137.78125 26.886719 137.664062 27.316406 137.429688 C 27.667969 137.214844 27.980469 136.960938 28.195312 136.648438 L 28.195312 137.625 L 29.035156 137.625 L 29.035156 133.894531 C 29.035156 133.210938 28.859375 132.683594 28.527344 132.3125 C 28.117188 131.863281 27.511719 131.648438 26.671875 131.648438 Z M 28.136719 134.832031 L 28.136719 135.320312 C 28.136719 135.789062 27.921875 136.179688 27.511719 136.53125 C 27.082031 136.902344 26.59375 137.078125 26.046875 137.078125 C 25.695312 137.078125 25.402344 136.980469 25.167969 136.824219 C 24.953125 136.628906 24.835938 136.414062 24.835938 136.160156 C 24.835938 135.300781 25.5 134.871094 26.808594 134.851562 Z M 28.136719 134.832031 "/>
<path style=" stroke:none;fill-rule:nonzero;fill:rgb(0%,0%,0%);fill-opacity:1;" d="M 31.984375 129.929688 L 31.105469 130.300781 L 31.105469 131.804688 L 29.933594 131.804688 L 29.933594 132.566406 L 31.105469 132.566406 L 31.105469 136.257812 C 31.105469 136.707031 31.183594 137.019531 31.378906 137.253906 C 31.574219 137.507812 31.925781 137.625 32.414062 137.625 L 33.273438 137.625 L 33.273438 136.863281 L 32.53125 136.863281 C 32.335938 136.863281 32.199219 136.824219 32.121094 136.726562 C 32.023438 136.628906 31.984375 136.472656 31.984375 136.257812 L 31.984375 132.566406 L 33.429688 132.566406 L 33.429688 131.804688 L 31.984375 131.804688 Z M 31.984375 129.929688 "/>
<path style=" stroke:none;fill-rule:nonzero;fill:rgb(0%,0%,0%);fill-opacity:1;" d="M 36.816406 131.648438 C 35.976562 131.648438 35.3125 131.960938 34.824219 132.566406 C 34.335938 133.132812 34.082031 133.855469 34.082031 134.714844 C 34.082031 135.652344 34.335938 136.394531 34.863281 136.960938 C 35.351562 137.507812 36.035156 137.78125 36.855469 137.78125 C 37.617188 137.78125 38.222656 137.566406 38.710938 137.136719 C 39.101562 136.765625 39.375 136.316406 39.492188 135.75 L 38.59375 135.75 C 38.457031 136.160156 38.261719 136.472656 38.007812 136.667969 C 37.714844 136.902344 37.324219 137.019531 36.855469 137.019531 C 36.308594 137.019531 35.859375 136.84375 35.546875 136.492188 C 35.234375 136.121094 35.078125 135.613281 35.019531 134.96875 L 39.609375 134.96875 C 39.589844 133.953125 39.375 133.152344 38.945312 132.605469 C 38.457031 131.960938 37.753906 131.648438 36.816406 131.648438 Z M 36.855469 132.410156 C 37.949219 132.410156 38.574219 133.015625 38.671875 134.265625 L 35.039062 134.265625 C 35.097656 133.699219 35.273438 133.25 35.605469 132.917969 C 35.917969 132.566406 36.328125 132.410156 36.855469 132.410156 Z M 36.855469 132.410156 "/>
<path style=" stroke:none;fill-rule:nonzero;fill:rgb(0%,0%,0%);fill-opacity:1;" d="M 13.285156 66.816406 C 12.074219 66.816406 11.136719 67.207031 10.433594 68.027344 C 9.769531 68.789062 9.4375 69.785156 9.4375 70.996094 C 9.4375 72.207031 9.769531 73.183594 10.433594 73.945312 C 11.136719 74.746094 12.074219 75.15625 13.285156 75.15625 C 14.476562 75.15625 15.433594 74.746094 16.136719 73.945312 C 16.78125 73.183594 17.132812 72.207031 17.132812 70.996094 C 17.132812 69.765625 16.78125 68.769531 16.136719 68.007812 C 15.433594 67.207031 14.476562 66.816406 13.285156 66.816406 Z M 13.285156 67.636719 C 14.203125 67.636719 14.925781 67.929688 15.453125 68.554688 C 15.941406 69.160156 16.195312 69.980469 16.195312 70.996094 C 16.195312 72.011719 15.941406 72.8125 15.453125 73.417969 C 14.925781 74.023438 14.203125 74.335938 13.285156 74.335938 C 12.347656 74.335938 11.625 74.023438 11.097656 73.398438 C 10.609375 72.792969 10.355469 71.992188 10.355469 70.996094 C 10.355469 70 10.609375 69.199219 11.097656 68.59375 C 11.644531 67.949219 12.367188 67.636719 13.285156 67.636719 Z M 13.285156 67.636719 "/>
<path style=" stroke:none;fill-rule:nonzero;fill:rgb(0%,0%,0%);fill-opacity:1;" d="M 18.300781 69.179688 L 18.300781 72.792969 C 18.300781 74.355469 18.984375 75.15625 20.410156 75.15625 C 21.191406 75.15625 21.835938 74.804688 22.304688 74.101562 L 22.304688 75 L 23.203125 75 L 23.203125 69.179688 L 22.304688 69.179688 L 22.304688 72.734375 C 22.226562 73.222656 22.050781 73.632812 21.71875 73.945312 C 21.425781 74.238281 21.074219 74.394531 20.683594 74.394531 C 20.15625 74.394531 19.785156 74.238281 19.550781 73.984375 C 19.316406 73.710938 19.199219 73.28125 19.199219 72.734375 L 19.199219 69.179688 Z M 18.300781 69.179688 "/>
<path style=" stroke:none;fill-rule:nonzero;fill:rgb(0%,0%,0%);fill-opacity:1;" d="M 26.144531 67.304688 L 25.265625 67.675781 L 25.265625 69.179688 L 24.09375 69.179688 L 24.09375 69.941406 L 25.265625 69.941406 L 25.265625 73.632812 C 25.265625 74.082031 25.34375 74.394531 25.539062 74.628906 C 25.734375 74.882812 26.085938 75 26.574219 75 L 27.433594 75 L 27.433594 74.238281 L 26.691406 74.238281 C 26.496094 74.238281 26.359375 74.199219 26.28125 74.101562 C 26.183594 74.003906 26.144531 73.847656 26.144531 73.632812 L 26.144531 69.941406 L 27.589844 69.941406 L 27.589844 69.179688 L 26.144531 69.179688 Z M 26.144531 67.304688 "/>
<path style=" stroke:none;fill-rule:nonzero;fill:rgb(0%,0%,0%);fill-opacity:1;" d="M 31.371094 69.023438 C 30.492188 69.023438 29.847656 69.394531 29.4375 70.136719 L 29.4375 69.179688 L 28.597656 69.179688 L 28.597656 77.226562 L 29.496094 77.226562 L 29.496094 73.945312 C 29.945312 74.746094 30.589844 75.15625 31.410156 75.15625 C 32.25 75.15625 32.894531 74.84375 33.363281 74.238281 C 33.792969 73.671875 34.007812 72.96875 34.007812 72.109375 C 34.007812 71.230469 33.792969 70.527344 33.34375 69.960938 C 32.875 69.335938 32.210938 69.023438 31.371094 69.023438 Z M 31.253906 69.765625 C 31.878906 69.765625 32.347656 70 32.679688 70.46875 C 32.953125 70.878906 33.089844 71.425781 33.089844 72.109375 C 33.089844 72.8125 32.953125 73.359375 32.660156 73.769531 C 32.328125 74.199219 31.859375 74.414062 31.214844 74.414062 C 30.6875 74.414062 30.277344 74.199219 29.945312 73.789062 C 29.613281 73.378906 29.457031 72.832031 29.457031 72.167969 L 29.457031 72.050781 C 29.457031 71.40625 29.613281 70.859375 29.90625 70.449219 C 30.21875 70 30.667969 69.765625 31.253906 69.765625 Z M 31.253906 69.765625 "/>
<path style=" stroke:none;fill-rule:nonzero;fill:rgb(0%,0%,0%);fill-opacity:1;" d="M 35.1875 69.179688 L 35.1875 72.792969 C 35.1875 74.355469 35.871094 75.15625 37.296875 75.15625 C 38.078125 75.15625 38.722656 74.804688 39.191406 74.101562 L 39.191406 75 L 40.089844 75 L 40.089844 69.179688 L 39.191406 69.179688 L 39.191406 72.734375 C 39.113281 73.222656 38.9375 73.632812 38.605469 73.945312 C 38.3125 74.238281 37.960938 74.394531 37.570312 74.394531 C 37.042969 74.394531 36.671875 74.238281 36.4375 73.984375 C 36.203125 73.710938 36.085938 73.28125 36.085938 72.734375 L 36.085938 69.179688 Z M 35.1875 69.179688 "/>
<path style=" stroke:none;fill-rule:nonzero;fill:rgb(0%,0%,0%);fill-opacity:1;" d="M 43.03125 67.304688 L 42.152344 67.675781 L 42.152344 69.179688 L 40.980469 69.179688 L 40.980469 69.941406 L 42.152344 69.941406 L 42.152344 73.632812 C 42.152344 74.082031 42.230469 74.394531 42.425781 74.628906 C 42.621094 74.882812 42.972656 75 43.460938 75 L 44.320312 75 L 44.320312 74.238281 L 43.578125 74.238281 C 43.382812 74.238281 43.246094 74.199219 43.167969 74.101562 C 43.070312 74.003906 43.03125 73.847656 43.03125 73.632812 L 43.03125 69.941406 L 44.476562 69.941406 L 44.476562 69.179688 L 43.03125 69.179688 Z M 43.03125 67.304688 "/>
<path style=" stroke:none;fill-rule:nonzero;fill:rgb(0%,0%,0%);fill-opacity:1;" d="M 16.527344 85.273438 C 15.882812 85.273438 15.335938 85.429688 14.925781 85.722656 C 14.496094 86.015625 14.28125 86.386719 14.28125 86.894531 C 14.28125 87.382812 14.496094 87.753906 14.945312 88.027344 C 15.21875 88.203125 15.6875 88.378906 16.390625 88.535156 C 17.015625 88.691406 17.425781 88.828125 17.621094 88.90625 C 17.972656 89.082031 18.167969 89.335938 18.167969 89.667969 C 18.167969 90.3125 17.640625 90.644531 16.605469 90.644531 C 16.117188 90.644531 15.746094 90.566406 15.492188 90.390625 C 15.238281 90.175781 15.082031 89.863281 15.003906 89.394531 L 14.125 89.394531 C 14.261719 90.742188 15.101562 91.40625 16.625 91.40625 C 18.265625 91.40625 19.085938 90.800781 19.085938 89.609375 C 19.085938 89.101562 18.851562 88.710938 18.402344 88.417969 C 18.089844 88.222656 17.601562 88.046875 16.898438 87.871094 C 16.3125 87.714844 15.902344 87.597656 15.6875 87.5 C 15.355469 87.324219 15.199219 87.109375 15.199219 86.855469 C 15.199219 86.601562 15.316406 86.40625 15.570312 86.25 C 15.804688 86.09375 16.117188 86.035156 16.527344 86.035156 C 16.976562 86.035156 17.347656 86.113281 17.582031 86.308594 C 17.816406 86.464844 17.953125 86.71875 18.03125 87.089844 L 18.910156 87.089844 C 18.753906 85.878906 17.972656 85.273438 16.527344 85.273438 Z M 16.527344 85.273438 "/>
<path style=" stroke:none;fill-rule:nonzero;fill:rgb(0%,0%,0%);fill-opacity:1;" d="M 21.703125 83.554688 L 20.824219 83.925781 L 20.824219 85.429688 L 19.652344 85.429688 L 19.652344 86.191406 L 20.824219 86.191406 L 20.824219 89.882812 C 20.824219 90.332031 20.902344 90.644531 21.097656 90.878906 C 21.292969 91.132812 21.644531 91.25 22.132812 91.25 L 22.992188 91.25 L 22.992188 90.488281 L 22.25 90.488281 C 22.054688 90.488281 21.917969 90.449219 21.839844 90.351562 C 21.742188 90.253906 21.703125 90.097656 21.703125 89.882812 L 21.703125 86.191406 L 23.148438 86.191406 L 23.148438 85.429688 L 21.703125 85.429688 Z M 21.703125 83.554688 "/>
<path style=" stroke:none;fill-rule:nonzero;fill:rgb(0%,0%,0%);fill-opacity:1;" d="M 26.671875 85.273438 C 25.988281 85.273438 25.421875 85.410156 24.992188 85.683594 C 24.523438 85.976562 24.230469 86.425781 24.09375 87.050781 L 24.992188 87.109375 C 25.089844 86.738281 25.265625 86.464844 25.578125 86.269531 C 25.851562 86.09375 26.203125 86.015625 26.613281 86.015625 C 27.628906 86.015625 28.136719 86.503906 28.136719 87.480469 L 28.136719 87.792969 L 26.75 87.8125 C 25.871094 87.8125 25.1875 87.988281 24.71875 88.300781 C 24.171875 88.632812 23.917969 89.140625 23.917969 89.804688 C 23.917969 90.273438 24.09375 90.664062 24.464844 90.976562 C 24.816406 91.269531 25.265625 91.40625 25.851562 91.40625 C 26.398438 91.40625 26.886719 91.289062 27.316406 91.054688 C 27.667969 90.839844 27.980469 90.585938 28.195312 90.273438 L 28.195312 91.25 L 29.035156 91.25 L 29.035156 87.519531 C 29.035156 86.835938 28.859375 86.308594 28.527344 85.9375 C 28.117188 85.488281 27.511719 85.273438 26.671875 85.273438 Z M 28.136719 88.457031 L 28.136719 88.945312 C 28.136719 89.414062 27.921875 89.804688 27.511719 90.15625 C 27.082031 90.527344 26.59375 90.703125 26.046875 90.703125 C 25.695312 90.703125 25.402344 90.605469 25.167969 90.449219 C 24.953125 90.253906 24.835938 90.039062 24.835938 89.785156 C 24.835938 88.925781 25.5 88.496094 26.808594 88.476562 Z M 28.136719 88.457031 "/>
<path style=" stroke:none;fill-rule:nonzero;fill:rgb(0%,0%,0%);fill-opacity:1;" d="M 31.984375 83.554688 L 31.105469 83.925781 L 31.105469 85.429688 L 29.933594 85.429688 L 29.933594 86.191406 L 31.105469 86.191406 L 31.105469 89.882812 C 31.105469 90.332031 31.183594 90.644531 31.378906 90.878906 C 31.574219 91.132812 31.925781 91.25 32.414062 91.25 L 33.273438 91.25 L 33.273438 90.488281 L 32.53125 90.488281 C 32.335938 90.488281 32.199219 90.449219 32.121094 90.351562 C 32.023438 90.253906 31.984375 90.097656 31.984375 89.882812 L 31.984375 86.191406 L 33.429688 86.191406 L 33.429688 85.429688 L 31.984375 85.429688 Z M 31.984375 83.554688 "/>
<path style=" stroke:none;fill-rule:nonzero;fill:rgb(0%,0%,0%);fill-opacity:1;" d="M 36.816406 85.273438 C 35.976562 85.273438 35.3125 85.585938 34.824219 86.191406 C 34.335938 86.757812 34.082031 87.480469 34.082031 88.339844 C 34.082031 89.277344 34.335938 90.019531 34.863281 90.585938 C 35.351562 91.132812 36.035156 91.40625 36.855469 91.40625 C 37.617188 91.40625 38.222656 91.191406 38.710938 90.761719 C 39.101562 90.390625 39.375 89.941406 39.492188 89.375 L 38.59375 89.375 C 38.457031 89.785156 38.261719 90.097656 38.007812 90.292969 C 37.714844 90.527344 37.324219 90.644531 36.855469 90.644531 C 36.308594 90.644531 35.859375 90.46875 35.546875 90.117188 C 35.234375 89.746094 35.078125 89.238281 35.019531 88.59375 L 39.609375 88.59375 C 39.589844 87.578125 39.375 86.777344 38.945312 86.230469 C 38.457031 85.585938 37.753906 85.273438 36.816406 85.273438 Z M 36.855469 86.035156 C 37.949219 86.035156 38.574219 86.640625 38.671875 87.890625 L 35.039062 87.890625 C 35.097656 87.324219 35.273438 86.875 35.605469 86.542969 C 35.917969 86.191406 36.328125 86.035156 36.855469 86.035156 Z M 36.855469 86.035156 "/>
<path style=" stroke:none;fill-rule:nonzero;fill:rgb(0%,0%,0%);fill-opacity:1;" d="M 279.933594 11.347656 L 275.890625 16.679688 L 275.890625 17.558594 L 279.933594 17.558594 L 279.933594 19.375 L 280.8125 19.375 L 280.8125 17.558594 L 282.101562 17.558594 L 282.101562 16.796875 L 280.8125 16.796875 L 280.8125 11.347656 Z M 279.894531 12.539062 L 279.933594 12.539062 L 279.933594 16.796875 L 276.671875 16.796875 Z M 279.894531 12.539062 "/>
<path style=" stroke:none;fill-rule:nonzero;fill:rgb(0%,0%,0%);fill-opacity:1;" d="M 274.78125 168.292969 L 274.78125 176.476562 L 275.621094 176.476562 L 275.621094 175.519531 C 276.011719 176.261719 276.65625 176.632812 277.554688 176.632812 C 278.394531 176.632812 279.058594 176.320312 279.546875 175.714844 C 279.976562 175.148438 280.191406 174.425781 280.191406 173.546875 C 280.191406 172.6875 279.976562 172.003906 279.546875 171.4375 C 279.078125 170.8125 278.414062 170.5 277.59375 170.5 C 276.773438 170.5 276.128906 170.910156 275.679688 171.730469 L 275.679688 168.292969 Z M 277.398438 171.242188 C 278.042969 171.242188 278.511719 171.476562 278.84375 171.925781 C 279.136719 172.316406 279.273438 172.863281 279.273438 173.546875 C 279.273438 174.25 279.136719 174.796875 278.863281 175.207031 C 278.550781 175.65625 278.0625 175.890625 277.4375 175.890625 C 276.851562 175.890625 276.402344 175.675781 276.089844 175.207031 C 275.796875 174.816406 275.640625 174.289062 275.640625 173.625 L 275.640625 173.527344 C 275.640625 172.84375 275.796875 172.296875 276.128906 171.867188 C 276.460938 171.457031 276.871094 171.242188 277.398438 171.242188 Z M 277.398438 171.242188 "/>
<path style=" stroke:none;fill-rule:nonzero;fill:rgb(0%,0%,0%);fill-opacity:1;" d="M 280.726562 170.65625 L 283.03125 176.339844 L 282.035156 178.703125 L 283.011719 178.703125 L 286.195312 170.65625 L 285.199219 170.65625 L 283.480469 175.246094 L 281.703125 170.65625 Z M 280.726562 170.65625 "/>
<path style=" stroke:none;fill-rule:nonzero;fill:rgb(0%,0%,0%);fill-opacity:1;" d="M 275.429688 39.472656 L 275.429688 47.5 L 276.367188 47.5 L 276.367188 43.75 L 281.015625 43.75 L 281.015625 47.5 L 281.933594 47.5 L 281.933594 39.472656 L 281.015625 39.472656 L 281.015625 42.949219 L 276.367188 42.949219 L 276.367188 39.472656 Z M 275.429688 39.472656 "/>
<path style=" stroke:none;fill-rule:nonzero;fill:rgb(0%,0%,0%);fill-opacity:1;" d="M 284.210938 46.152344 C 284.015625 46.152344 283.859375 46.230469 283.722656 46.367188 C 283.585938 46.503906 283.527344 46.660156 283.527344 46.855469 C 283.527344 47.050781 283.585938 47.207031 283.722656 47.34375 C 283.859375 47.480469 284.015625 47.539062 284.210938 47.539062 C 284.386719 47.539062 284.5625 47.480469 284.699219 47.34375 C 284.835938 47.207031 284.894531 47.050781 284.894531 46.855469 C 284.894531 46.660156 284.835938 46.503906 284.699219 46.367188 C 284.5625 46.230469 284.386719 46.152344 284.210938 46.152344 Z M 284.210938 46.152344 "/>
<path style="fill-rule:nonzero;fill:rgb(69.803922%,85.098039%,100%);fill-opacity:1;stroke-width:1;stroke-linecap:round;stroke-linejoin:round;stroke:rgb(0%,0%,0%);stroke-opacity:1;stroke-miterlimit:10;" d="M 224.128125 111.1 L 250.128125 111.1 L 250.128125 131.1 L 224.128125 131.1 Z M 224.128125 111.1 " transform="matrix(1.25,0,0,1.25,-16.25,-26.25)"/>
<path style=" stroke:none;fill-rule:nonzero;fill:rgb(0%,0%,0%);fill-opacity:1;" d="M 274.488281 128.109375 L 274.488281 120.0625 L 276.109375 120.0625 L 276.109375 123.226562 L 279.3125 123.226562 L 279.3125 120.0625 L 280.933594 120.0625 L 280.933594 128.109375 L 279.3125 128.109375 L 279.3125 124.59375 L 276.109375 124.59375 L 276.109375 128.109375 Z M 274.488281 128.109375 "/>
<path style=" stroke:none;fill-rule:nonzero;fill:rgb(0%,0%,0%);fill-opacity:1;" d="M 284.625 130.609375 L 284.625 129.105469 L 281.910156 129.105469 L 281.910156 128.402344 L 284.761719 124.339844 L 285.386719 124.339844 L 285.386719 128.402344 L 286.246094 128.402344 L 286.246094 129.105469 L 285.386719 129.105469 L 285.386719 130.609375 Z M 284.625 128.402344 L 284.625 125.589844 L 282.652344 128.402344 Z M 284.625 128.402344 "/>
<path style="fill-rule:nonzero;fill:rgb(40%,74.901961%,100%);fill-opacity:1;stroke-width:1;stroke-linecap:round;stroke-linejoin:round;stroke:rgb(0%,0%,0%);stroke-opacity:1;stroke-miterlimit:10;" d="M 224.128125 74 L 250.128125 74 L 250.128125 94 L 224.128125 94 Z M 224.128125 74 " transform="matrix(1.25,0,0,1.25,-16.25,-26.25)"/>
<path style=" stroke:none;fill-rule:nonzero;fill:rgb(0%,0%,0%);fill-opacity:1;" d="M 273.84375 77.746094 C 273.84375 76.925781 273.964844 76.242188 274.214844 75.695312 C 274.394531 75.28125 274.644531 74.910156 274.957031 74.582031 C 275.277344 74.261719 275.628906 74.015625 276.011719 73.859375 C 276.503906 73.65625 277.074219 73.546875 277.730469 73.546875 C 278.925781 73.546875 279.878906 73.917969 280.582031 74.660156 C 281.292969 75.394531 281.65625 76.410156 281.65625 77.707031 C 281.65625 79.011719 281.292969 80.03125 280.582031 80.773438 C 279.878906 81.507812 278.941406 81.867188 277.769531 81.867188 C 276.566406 81.867188 275.609375 81.507812 274.898438 80.773438 C 274.195312 80.046875 273.84375 79.035156 273.84375 77.746094 Z M 275.523438 77.707031 C 275.523438 78.621094 275.726562 79.308594 276.148438 79.777344 C 276.578125 80.246094 277.109375 80.480469 277.75 80.480469 C 278.398438 80.480469 278.929688 80.246094 279.351562 79.777344 C 279.765625 79.308594 279.976562 78.605469 279.976562 77.667969 C 279.976562 76.761719 279.769531 76.078125 279.371094 75.617188 C 278.964844 75.164062 278.421875 74.933594 277.75 74.933594 C 277.085938 74.933594 276.542969 75.164062 276.128906 75.617188 C 275.722656 76.078125 275.523438 76.769531 275.523438 77.707031 Z M 275.523438 77.707031 "/>
<path style=" stroke:none;fill-rule:nonzero;fill:rgb(0%,0%,0%);fill-opacity:1;" d="M 284.9375 84.230469 L 284.9375 82.726562 L 282.222656 82.726562 L 282.222656 82.023438 L 285.074219 77.960938 L 285.699219 77.960938 L 285.699219 82.023438 L 286.558594 82.023438 L 286.558594 82.726562 L 285.699219 82.726562 L 285.699219 84.230469 Z M 284.9375 82.023438 L 284.9375 79.210938 L 282.964844 82.023438 Z M 284.9375 82.023438 "/>
<path style=" stroke:none;fill-rule:nonzero;fill:rgb(0%,0%,0%);fill-opacity:1;" d="M 339.847656 11.347656 L 339.4375 15.78125 L 340.316406 15.78125 C 340.472656 15.46875 340.707031 15.214844 341.019531 15.058594 C 341.332031 14.882812 341.664062 14.804688 342.054688 14.804688 C 342.640625 14.804688 343.089844 14.980469 343.421875 15.332031 C 343.753906 15.683594 343.949219 16.171875 343.949219 16.816406 C 343.949219 17.382812 343.753906 17.851562 343.382812 18.203125 C 343.011719 18.574219 342.5625 18.75 341.996094 18.75 C 341.507812 18.75 341.078125 18.613281 340.765625 18.378906 C 340.414062 18.105469 340.199219 17.714844 340.160156 17.207031 L 339.242188 17.207031 C 339.300781 17.949219 339.613281 18.535156 340.179688 18.964844 C 340.667969 19.335938 341.273438 19.53125 341.976562 19.53125 C 342.777344 19.53125 343.441406 19.277344 343.988281 18.808594 C 344.554688 18.28125 344.847656 17.617188 344.847656 16.816406 C 344.847656 15.9375 344.613281 15.273438 344.125 14.765625 C 343.65625 14.296875 343.03125 14.0625 342.269531 14.0625 C 341.898438 14.0625 341.566406 14.101562 341.253906 14.238281 C 340.902344 14.375 340.609375 14.589844 340.394531 14.84375 L 340.335938 14.84375 L 340.609375 12.167969 L 344.535156 12.167969 L 344.535156 11.347656 Z M 339.847656 11.347656 "/>
<path style=" stroke:none;fill-rule:nonzero;fill:rgb(0%,0%,0%);fill-opacity:1;" d="M 338.488281 168.449219 L 338.488281 176.476562 L 339.425781 176.476562 L 339.425781 172.726562 L 344.074219 172.726562 L 344.074219 176.476562 L 344.992188 176.476562 L 344.992188 168.449219 L 344.074219 168.449219 L 344.074219 171.925781 L 339.425781 171.925781 L 339.425781 168.449219 Z M 338.488281 168.449219 "/>
<path style=" stroke:none;fill-rule:nonzero;fill:rgb(0%,0%,0%);fill-opacity:1;" d="M 347.273438 175.128906 C 347.078125 175.128906 346.921875 175.207031 346.785156 175.34375 C 346.648438 175.480469 346.589844 175.636719 346.589844 175.832031 C 346.589844 176.027344 346.648438 176.183594 346.785156 176.320312 C 346.921875 176.457031 347.078125 176.515625 347.273438 176.515625 C 347.449219 176.515625 347.625 176.457031 347.761719 176.320312 C 347.898438 176.183594 347.957031 176.027344 347.957031 175.832031 C 347.957031 175.636719 347.898438 175.480469 347.761719 175.34375 C 347.625 175.207031 347.449219 175.128906 347.273438 175.128906 Z M 347.273438 175.128906 "/>
<path style=" stroke:none;fill-rule:nonzero;fill:rgb(0%,0%,0%);fill-opacity:1;" d="M 341.769531 39.316406 C 340.597656 39.316406 339.660156 39.726562 338.976562 40.566406 C 338.3125 41.347656 338 42.324219 338 43.515625 C 338 44.707031 338.332031 45.683594 338.976562 46.445312 C 339.679688 47.246094 340.675781 47.65625 341.945312 47.65625 C 342.609375 47.65625 343.214844 47.558594 343.800781 47.382812 C 344.367188 47.207031 344.835938 46.972656 345.207031 46.660156 L 345.207031 43.378906 L 341.789062 43.378906 L 341.789062 44.179688 L 344.308594 44.179688 L 344.308594 46.210938 C 344.015625 46.40625 343.683594 46.5625 343.292969 46.660156 C 342.882812 46.777344 342.472656 46.855469 342.023438 46.855469 C 340.988281 46.855469 340.207031 46.523438 339.660156 45.917969 C 339.171875 45.332031 338.917969 44.53125 338.917969 43.515625 C 338.917969 42.480469 339.171875 41.660156 339.699219 41.054688 C 340.207031 40.429688 340.890625 40.136719 341.769531 40.136719 C 342.472656 40.136719 343.058594 40.292969 343.488281 40.644531 C 343.917969 40.976562 344.171875 41.445312 344.308594 42.050781 L 345.226562 42.050781 C 345.070312 41.171875 344.738281 40.507812 344.171875 40.039062 C 343.566406 39.550781 342.765625 39.316406 341.769531 39.316406 Z M 341.769531 39.316406 "/>
<path style=" stroke:none;fill-rule:nonzero;fill:rgb(0%,0%,0%);fill-opacity:1;" d="M 347.429688 46.152344 C 347.234375 46.152344 347.078125 46.230469 346.941406 46.367188 C 346.804688 46.503906 346.746094 46.660156 346.746094 46.855469 C 346.746094 47.050781 346.804688 47.207031 346.941406 47.34375 C 347.078125 47.480469 347.234375 47.539062 347.429688 47.539062 C 347.605469 47.539062 347.78125 47.480469 347.917969 47.34375 C 348.054688 47.207031 348.113281 47.050781 348.113281 46.855469 C 348.113281 46.660156 348.054688 46.503906 347.917969 46.367188 C 347.78125 46.230469 347.605469 46.152344 347.429688 46.152344 Z M 347.429688 46.152344 "/>
<path style="fill-rule:nonzero;fill:rgb(69.803922%,85.098039%,100%);fill-opacity:1;stroke-width:1;stroke-linecap:round;stroke-linejoin:round;stroke:rgb(0%,0%,0%);stroke-opacity:1;stroke-miterlimit:10;" d="M 274.578125 111.1 L 300.578125 111.1 L 300.578125 131.1 L 274.578125 131.1 Z M 274.578125 111.1 " transform="matrix(1.25,0,0,1.25,-16.25,-26.25)"/>
<path style=" stroke:none;fill-rule:nonzero;fill:rgb(0%,0%,0%);fill-opacity:1;" d="M 337.550781 128.109375 L 337.550781 120.0625 L 339.171875 120.0625 L 339.171875 123.226562 L 342.375 123.226562 L 342.375 120.0625 L 343.996094 120.0625 L 343.996094 128.109375 L 342.375 128.109375 L 342.375 124.59375 L 339.171875 124.59375 L 339.171875 128.109375 Z M 337.550781 128.109375 "/>
<path style=" stroke:none;fill-rule:nonzero;fill:rgb(0%,0%,0%);fill-opacity:1;" d="M 345.222656 128.96875 L 346.023438 128.890625 C 346.089844 129.292969 346.226562 129.59375 346.433594 129.789062 C 346.65625 129.984375 346.921875 130.082031 347.234375 130.082031 C 347.597656 130.082031 347.90625 129.945312 348.152344 129.671875 C 348.414062 129.386719 348.542969 129.015625 348.542969 128.558594 C 348.542969 128.117188 348.417969 127.769531 348.171875 127.523438 C 347.9375 127.261719 347.617188 127.132812 347.214844 127.132812 C 346.96875 127.132812 346.738281 127.191406 346.53125 127.308594 C 346.335938 127.414062 346.1875 127.554688 346.082031 127.738281 L 345.359375 127.640625 L 345.964844 124.4375 L 349.070312 124.4375 L 349.070312 125.160156 L 346.570312 125.160156 L 346.238281 126.839844 C 346.617188 126.578125 347.007812 126.449219 347.410156 126.449219 C 347.957031 126.449219 348.417969 126.644531 348.796875 127.035156 C 349.175781 127.414062 349.363281 127.894531 349.363281 128.480469 C 349.363281 129.054688 349.199219 129.546875 348.875 129.964844 C 348.472656 130.460938 347.925781 130.707031 347.234375 130.707031 C 346.660156 130.707031 346.191406 130.550781 345.828125 130.238281 C 345.476562 129.914062 345.273438 129.488281 345.222656 128.96875 Z M 345.222656 128.96875 "/>
<path style="fill-rule:nonzero;fill:rgb(40%,74.901961%,100%);fill-opacity:1;stroke-width:1;stroke-linecap:round;stroke-linejoin:round;stroke:rgb(0%,0%,0%);stroke-opacity:1;stroke-miterlimit:10;" d="M 274.578125 74 L 300.578125 74 L 300.578125 94 L 274.578125 94 Z M 274.578125 74 " transform="matrix(1.25,0,0,1.25,-16.25,-26.25)"/>
<path style=" stroke:none;fill-rule:nonzero;fill:rgb(0%,0%,0%);fill-opacity:1;" d="M 336.902344 77.746094 C 336.902344 76.925781 337.027344 76.242188 337.273438 75.695312 C 337.457031 75.28125 337.703125 74.910156 338.015625 74.582031 C 338.339844 74.261719 338.691406 74.015625 339.070312 73.859375 C 339.566406 73.65625 340.136719 73.546875 340.789062 73.546875 C 341.988281 73.546875 342.9375 73.917969 343.640625 74.660156 C 344.355469 75.394531 344.714844 76.410156 344.714844 77.707031 C 344.714844 79.011719 344.355469 80.03125 343.640625 80.773438 C 342.9375 81.507812 342 81.867188 340.828125 81.867188 C 339.628906 81.867188 338.671875 81.507812 337.957031 80.773438 C 337.253906 80.046875 336.902344 79.035156 336.902344 77.746094 Z M 338.582031 77.707031 C 338.582031 78.621094 338.789062 79.308594 339.207031 79.777344 C 339.636719 80.246094 340.171875 80.480469 340.808594 80.480469 C 341.460938 80.480469 341.992188 80.246094 342.410156 79.777344 C 342.828125 79.308594 343.035156 78.605469 343.035156 77.667969 C 343.035156 76.761719 342.832031 76.078125 342.429688 75.617188 C 342.027344 75.164062 341.484375 74.933594 340.808594 74.933594 C 340.144531 74.933594 339.605469 75.164062 339.1875 75.617188 C 338.785156 76.078125 338.582031 76.769531 338.582031 77.707031 Z M 338.582031 77.707031 "/>
<path style=" stroke:none;fill-rule:nonzero;fill:rgb(0%,0%,0%);fill-opacity:1;" d="M 345.539062 82.589844 L 346.339844 82.511719 C 346.402344 82.917969 346.539062 83.214844 346.75 83.410156 C 346.96875 83.605469 347.238281 83.703125 347.550781 83.703125 C 347.910156 83.703125 348.21875 83.566406 348.46875 83.292969 C 348.726562 83.011719 348.859375 82.640625 348.859375 82.179688 C 348.859375 81.742188 348.730469 81.394531 348.488281 81.144531 C 348.253906 80.886719 347.929688 80.753906 347.53125 80.753906 C 347.28125 80.753906 347.050781 80.8125 346.847656 80.929688 C 346.652344 81.039062 346.5 81.179688 346.398438 81.359375 L 345.675781 81.261719 L 346.28125 78.058594 L 349.386719 78.058594 L 349.386719 78.78125 L 346.886719 78.78125 L 346.554688 80.460938 C 346.929688 80.203125 347.320312 80.070312 347.726562 80.070312 C 348.273438 80.070312 348.730469 80.265625 349.113281 80.65625 C 349.488281 81.039062 349.679688 81.515625 349.679688 82.101562 C 349.679688 82.679688 349.511719 83.171875 349.191406 83.585938 C 348.785156 84.085938 348.238281 84.328125 347.550781 84.328125 C 346.972656 84.328125 346.503906 84.171875 346.144531 83.859375 C 345.792969 83.539062 345.585938 83.113281 345.539062 82.589844 Z M 345.539062 82.589844 "/>
<path style="fill:none;stroke-width:1;stroke-linecap:round;stroke-linejoin:round;stroke:rgb(0%,0%,0%);stroke-opacity:1;stroke-miterlimit:10;" d="M 199.80625 121.1 L 218.23125 121.1 " transform="matrix(1.25,0,0,1.25,-16.25,-26.25)"/>
<path style="fill:none;stroke-width:1;stroke-linecap:butt;stroke-linejoin:miter;stroke:rgb(0%,0%,0%);stroke-opacity:1;stroke-miterlimit:10;" d="M 222.23125 121.1 L 218.23125 121.1 M 218.23125 119.6 L 222.23125 121.1 L 218.23125 122.6 " transform="matrix(1.25,0,0,1.25,-16.25,-26.25)"/>
<path style="fill:none;stroke-width:1;stroke-linecap:round;stroke-linejoin:round;stroke:rgb(0%,0%,0%);stroke-opacity:1;stroke-miterlimit:10;" d="M 250.128125 121.1 L 268.68125 121.1 " transform="matrix(1.25,0,0,1.25,-16.25,-26.25)"/>
<path style="fill:none;stroke-width:1;stroke-linecap:butt;stroke-linejoin:miter;stroke:rgb(0%,0%,0%);stroke-opacity:1;stroke-miterlimit:10;" d="M 272.68125 121.1 L 268.68125 121.1 M 268.68125 119.6 L 272.68125 121.1 L 268.68125 122.6 " transform="matrix(1.25,0,0,1.25,-16.25,-26.25)"/>
<path style="fill:none;stroke-width:1;stroke-linecap:round;stroke-linejoin:round;stroke:rgb(0%,0%,0%);stroke-opacity:1;stroke-miterlimit:10;" d="M 237.128125 147.18125 L 237.128125 137 " transform="matrix(1.25,0,0,1.25,-16.25,-26.25)"/>
<path style="fill:none;stroke-width:1;stroke-linecap:butt;stroke-linejoin:miter;stroke:rgb(0%,0%,0%);stroke-opacity:1;stroke-miterlimit:10;" d="M 237.128125 133 L 237.128125 137 M 235.628125 137 L 237.128125 133 L 238.628125 137 " transform="matrix(1.25,0,0,1.25,-16.25,-26.25)"/>
<path style="fill:none;stroke-width:1;stroke-linecap:round;stroke-linejoin:round;stroke:rgb(0%,0%,0%);stroke-opacity:1;stroke-miterlimit:10;" d="M 237.128125 111.1 L 237.128125 99.9 " transform="matrix(1.25,0,0,1.25,-16.25,-26.25)"/>
<path style="fill:none;stroke-width:1;stroke-linecap:butt;stroke-linejoin:miter;stroke:rgb(0%,0%,0%);stroke-opacity:1;stroke-miterlimit:10;" d="M 237.128125 95.9 L 237.128125 99.9 M 235.628125 99.9 L 237.128125 95.9 L 238.628125 99.9 " transform="matrix(1.25,0,0,1.25,-16.25,-26.25)"/>
<path style="fill:none;stroke-width:1;stroke-linecap:round;stroke-linejoin:round;stroke:rgb(0%,0%,0%);stroke-opacity:1;stroke-miterlimit:10;" d="M 287.578125 147.18125 L 287.578125 137 " transform="matrix(1.25,0,0,1.25,-16.25,-26.25)"/>
<path style="fill:none;stroke-width:1;stroke-linecap:butt;stroke-linejoin:miter;stroke:rgb(0%,0%,0%);stroke-opacity:1;stroke-miterlimit:10;" d="M 287.578125 133 L 287.578125 137 M 286.078125 137 L 287.578125 133 L 289.078125 137 " transform="matrix(1.25,0,0,1.25,-16.25,-26.25)"/>
<path style="fill:none;stroke-width:1;stroke-linecap:round;stroke-linejoin:round;stroke:rgb(0%,0%,0%);stroke-opacity:1;stroke-miterlimit:10;" d="M 287.578125 111.1 L 287.578125 99.9 " transform="matrix(1.25,0,0,1.25,-16.25,-26.25)"/>
<path style="fill:none;stroke-width:1;stroke-linecap:butt;stroke-linejoin:miter;stroke:rgb(0%,0%,0%);stroke-opacity:1;stroke-miterlimit:10;" d="M 287.578125 95.9 L 287.578125 99.9 M 286.078125 99.9 L 287.578125 95.9 L 289.078125 99.9 " transform="matrix(1.25,0,0,1.25,-16.25,-26.25)"/>
</g>
</svg>
